<?xml version="1.0" encoding="utf-8"?>
<!-- Generated by IcoMoon.io -->
<!DOCTYPE svg PUBLIC "-//W3C//DTD SVG 1.1//EN" "http://www.w3.org/Graphics/SVG/1.1/DTD/svg11.dtd">
<svg version="1.1" xmlns="http://www.w3.org/2000/svg" xmlns:xlink="http://www.w3.org/1999/xlink" width="400" height="600" viewBox="0 0 400 600">
    <!-- 账号设置 灰色半身人 26	 -->
    <svg x="5" y="4" viewBox="0 0 15.1 16.5" width="15.1" height="16.5">
        <g>
            <path fill="#818181" d="M7.6,9.1C5.1,9.1,3,7.1,3,4.5C3,2,5.1,0,7.6,0c2.5,0,4.5,2,4.5,4.5C12.1,7.1,10.1,9.1,7.6,9.1 M7.6,0.5c-2.2,0-4,1.8-4,4c0,2.2,1.8,4,4,4c2.2,0,4-1.8,4-4C11.6,2.3,9.8,0.5,7.6,0.5" class="color-1" />
            <path fill="#818181" d="M14.9,16.5c-0.1,0-0.2-0.1-0.2-0.2c0-2.5-1.4-4.9-3.6-6.1c-0.1-0.1-0.2-0.2-0.1-0.3s0.2-0.2,0.3-0.1c2.4,1.3,3.8,3.9,3.8,6.6C15.1,16.4,15,16.5,14.9,16.5" class="color-1" />
            <path fill="#818181" d="M0.2,16.5c-0.1,0-0.2-0.1-0.2-0.2C0,12,3.4,8.7,7.6,8.7c0.1,0,0.2,0.1,0.2,0.2c0,0.1-0.1,0.2-0.2,0.2c-3.9,0-7.1,3.2-7.1,7.1C0.5,16.4,0.4,16.5,0.2,16.5" class="color-1" />
        </g>
    </svg>
    <!-- 账号设置 蓝色半身人 27 -->
    <svg x="5" y="28" viewBox="0 0 15.1 16.5" width="15.1" height="16.5">
        <g>
            <path fill="#26A4AF" d="M7.6,9.1C5.1,9.1,3,7.1,3,4.5C3,2,5.1,0,7.6,0s4.5,2,4.5,4.5C12.1,7.1,10.1,9.1,7.6,9.1 M7.6,0.5c-2.2,0-4,1.8-4,4c0,2.2,1.8,4,4,4c2.2,0,4-1.8,4-4C11.6,2.3,9.8,0.5,7.6,0.5" class="color-1" />
            <path fill="#26A4AF" d="M14.9,16.5c-0.1,0-0.2-0.1-0.2-0.2c0-2.5-1.4-4.9-3.6-6.1c-0.1-0.1-0.2-0.2-0.1-0.3c0.1-0.1,0.2-0.2,0.3-0.1c2.4,1.3,3.8,3.9,3.8,6.6C15.1,16.4,15,16.5,14.9,16.5" class="color-1" />
            <path fill="#26A4AF" d="M0.2,16.5c-0.1,0-0.2-0.1-0.2-0.2C0,12,3.4,8.7,7.6,8.7c0.1,0,0.2,0.1,0.2,0.2c0,0.1-0.1,0.2-0.2,0.2c-3.9,0-7.1,3.2-7.1,7.1C0.5,16.4,0.4,16.5,0.2,16.5" class="color-1" />
        </g>
    </svg>
    <!-- 注册 灰色 28 -->
    <svg x="29" y="4" viewBox="0 0 16.1 16.1" width="16.1" height="16.1">
        <g>
            <path fill="#818181" d="M8.1,16.1C3.6,16.1,0,12.5,0,8.1C0,3.6,3.6,0,8.1,0c0.7,0,1.4,0.1,2.1,0.3c0.1,0,0.2,0.2,0.2,0.3c0,0.1-0.2,0.2-0.3,0.2C9.4,0.6,8.7,0.5,8.1,0.5c-4.2,0-7.6,3.4-7.6,7.6c0,4.2,3.4,7.6,7.6,7.6c4.2,0,7.6-3.4,7.6-7.6c0-0.6-0.1-1.3-0.2-1.9c0-0.1,0-0.3,0.2-0.3c0.1,0,0.3,0,0.3,0.2c0.2,0.6,0.2,1.3,0.2,2C16.1,12.5,12.5,16.1,8.1,16.1" class="color-1" />
            <path fill="#818181" d="M4.8,11.8c-0.1,0-0.2,0-0.2-0.1c-0.1-0.1-0.1-0.3-0.1-0.4l1.4-3.1l6.9-6.9c0.6-0.6,1.5-0.6,2.1,0c0.3,0.3,0.4,0.7,0.4,1c0,0.4-0.2,0.8-0.4,1l-7,7l-3,1.4C4.9,11.7,4.9,11.8,4.8,11.8 M6.3,8.5l-1.2,2.6l2.6-1.2L14.6,3c0.4-0.4,0.4-1,0-1.4c-0.4-0.4-1-0.4-1.4,0L6.3,8.5z" class="color-1" />
        </g>
    </svg>
    <!-- 注册 蓝色 29 -->
    <svg x="29" y="28" viewBox="0 0 16.1 16.1" width="16.1" height="16.1">
        <g>
            <path fill="#26A4AF" d="M8.1,16.1C3.6,16.1,0,12.5,0,8.1C0,3.6,3.6,0,8.1,0c0.7,0,1.4,0.1,2.1,0.3c0.1,0,0.2,0.2,0.2,0.3c0,0.1-0.2,0.2-0.3,0.2C9.4,0.6,8.7,0.5,8.1,0.5c-4.2,0-7.6,3.4-7.6,7.6c0,4.2,3.4,7.6,7.6,7.6c4.2,0,7.6-3.4,7.6-7.6c0-0.6-0.1-1.3-0.2-1.9c0-0.1,0-0.3,0.2-0.3c0.1,0,0.3,0,0.3,0.2c0.2,0.6,0.3,1.3,0.3,2C16.1,12.5,12.5,16.1,8.1,16.1" class="color-1" />
            <path fill="#26A4AF" d="M4.8,11.8c-0.1,0-0.2,0-0.2-0.1c-0.1-0.1-0.1-0.3-0.1-0.4l1.4-3.1l6.9-6.9c0.6-0.6,1.5-0.6,2.1,0c0.3,0.3,0.4,0.6,0.4,1s-0.2,0.8-0.4,1l-7,7l-3,1.4C4.9,11.7,4.9,11.8,4.8,11.8 M6.3,8.5l-1.2,2.6l2.6-1.2L14.6,3c0.2-0.2,0.3-0.4,0.3-0.7c0-0.3-0.1-0.5-0.3-0.7c-0.4-0.4-1-0.4-1.4,0L6.3,8.5z" class="color-1" />
        </g>
    </svg>
    <!-- 灰色注销 -->
    <svg x="53" y="4" width="16.179" height="17.577" viewBox="0 0 16.179 17.577">
        <g>
            <g id="XMLID_765_">
                <path fill="#818181" d="M8.089,9.755L8.089,9.755c-0.138,0-0.25-0.112-0.25-0.25V0.25C7.839,0.112,7.951,0,8.089,0l0,0
					c0.138,0,0.25,0.112,0.25,0.25v9.255C8.339,9.643,8.227,9.755,8.089,9.755z" />
            </g>
            <g id="XMLID_762_">
                <g id="XMLID_764_">
                    <path id="XMLID_766_" fill="#818181" d="M8.089,17.577C3.629,17.577,0,13.948,0,9.488C0,6.195,1.976,3.26,5.032,2.012
						c0.129-0.053,0.274,0.009,0.326,0.137S5.349,2.422,5.222,2.475C2.354,3.646,0.5,6.399,0.5,9.488c0,4.185,3.405,7.589,7.589,7.589
						s7.589-3.405,7.589-7.589c0-3.109-1.87-5.868-4.763-7.03c-0.128-0.051-0.19-0.197-0.139-0.325s0.196-0.19,0.325-0.139
						c3.084,1.238,5.077,4.18,5.077,7.494C16.179,13.948,12.55,17.577,8.089,17.577z" />
                </g>
            </g>
        </g>
    </svg>
    <!-- 蓝色注销 -->
    <svg x="53" y="28" width="16.178" height="17.577" viewBox="0 0 16.178 17.577">
        <g>
            <g id="XMLID_767_">
                <path fill="#26A4AF" d="M8.089,9.755L8.089,9.755c-0.138,0-0.25-0.112-0.25-0.25V0.25C7.839,0.112,7.951,0,8.089,0l0,0
					c0.138,0,0.25,0.112,0.25,0.25v9.255C8.339,9.643,8.227,9.755,8.089,9.755z" />
            </g>
            <g id="XMLID_754_">
                <g id="XMLID_755_">
                    <path id="XMLID_768_" fill="#26A4AF" d="M8.089,17.577C3.628,17.577,0,13.948,0,9.488C0,6.194,1.975,3.26,5.032,2.012
						C5.16,1.959,5.306,2.021,5.358,2.148S5.349,2.422,5.221,2.475C2.353,3.646,0.5,6.398,0.5,9.488c0,4.185,3.404,7.589,7.589,7.589
						s7.589-3.405,7.589-7.589c0-3.109-1.87-5.868-4.763-7.03c-0.128-0.051-0.19-0.197-0.139-0.325
						c0.051-0.128,0.196-0.19,0.325-0.139c3.084,1.238,5.077,4.18,5.077,7.494C16.178,13.948,12.549,17.577,8.089,17.577z" />
                </g>
            </g>
        </g>
    </svg>
    <!-- 工作平台 灰色电脑 30	 -->
    <svg x="77" y="4" viewBox="0 0 15.1 15.2" width="15.1" height="15.2">
        <g>
            <path fill="#818181" d="M13.8,11.8H1.2c-0.7,0-1.2-0.6-1.2-1.2V1.2C0,0.6,0.6,0,1.2,0h12.6c0.7,0,1.2,0.6,1.2,1.2v9.3C15.1,11.2,14.5,11.8,13.8,11.8 M1.2,0.5c-0.4,0-0.8,0.3-0.8,0.8v9.3c0,0.4,0.3,0.8,0.8,0.8h12.6c0.4,0,0.8-0.3,0.8-0.8V1.2c0-0.4-0.3-0.8-0.8-0.8H1.2z" class="color-1" />
            <path fill="#818181" d="M14.1,15.2h-3.3c-0.1,0-0.2-0.1-0.2-0.2c0-0.1,0.1-0.2,0.2-0.2h3.3c0.1,0,0.2,0.1,0.2,0.2C14.3,15.1,14.2,15.2,14.1,15.2" class="color-1" />
            <path fill="#818181" d="M7.6,15.2H1c-0.1,0-0.2-0.1-0.2-0.2c0-0.1,0.1-0.2,0.2-0.2h6.5c0.1,0,0.2,0.1,0.2,0.2C7.8,15.1,7.7,15.2,7.6,15.2" class="color-1" />
            <path fill="#818181" d="M7.6,15.2c-0.1,0-0.2-0.1-0.2-0.2v-3.4c0-0.1,0.1-0.2,0.2-0.2c0.1,0,0.2,0.1,0.2,0.2V15C7.8,15.1,7.7,15.2,7.6,15.2" class="color-1" />
        </g>
    </svg>
    <!-- 工作平台 蓝色电脑 31 -->
    <svg x="77" y="28" viewBox="0 0 15.1 15.2" width="15.1" height="15.2">
        <g>
            <path fill="#26A4AF" d="M13.8,11.8H1.2c-0.7,0-1.2-0.6-1.2-1.2V1.2C0,0.6,0.6,0,1.2,0h12.6c0.7,0,1.2,0.6,1.2,1.2v9.3C15.1,11.2,14.5,11.8,13.8,11.8 M1.2,0.5c-0.4,0-0.8,0.3-0.8,0.8v9.3c0,0.4,0.3,0.8,0.8,0.8h12.6c0.4,0,0.8-0.3,0.8-0.8V1.2c0-0.4-0.3-0.8-0.8-0.8H1.2z" class="color-1" />
            <path fill="#26A4AF" d="M14.1,15.2h-3.3c-0.1,0-0.2-0.1-0.2-0.2c0-0.1,0.1-0.2,0.2-0.2h3.3c0.1,0,0.2,0.1,0.2,0.2C14.3,15.1,14.2,15.2,14.1,15.2" class="color-1" />
            <path fill="#26A4AF" d="M7.6,15.2H1c-0.1,0-0.2-0.1-0.2-0.2c0-0.1,0.1-0.2,0.2-0.2h6.5c0.1,0,0.2,0.1,0.2,0.2C7.8,15.1,7.7,15.2,7.6,15.2" class="color-1" />
            <path fill="#26A4AF" d="M7.6,15.2c-0.1,0-0.2-0.1-0.2-0.2v-3.4c0-0.1,0.1-0.2,0.2-0.2c0.1,0,0.2,0.1,0.2,0.2V15C7.8,15.1,7.7,15.2,7.6,15.2" class="color-1" />
        </g>
    </svg>
    <!-- 用户通知图标 灰色喇叭 -->
<!--     <svg x="101" y="4" viewBox="0 0 15.7 15" width="15.7" height="15">
        <g id="XMLID_2501_">
            <g>
                <path fill="#818181" d="M12.8,0.4c0-0.1-0.1-0.1-0.2-0.1h0c-0.1,0-0.1,0-0.2,0.1c0,0.1-0.1,0.1-0.1,0.2c0,0.1,0,0.1,0.1,0.2
			c3.6,3.7,3.6,9.8,0,13.5c-0.1,0.1-0.1,0.3,0,0.4c0.1,0.1,0.3,0.1,0.4,0c1.8-1.9,2.8-4.4,2.8-7.1C15.7,4.8,14.7,2.3,12.8,0.4z
			 M11.1,4c0-0.1-0.1-0.1-0.2-0.1c-0.1,0-0.1,0-0.2,0.1c0,0.1-0.1,0.1-0.1,0.2c0,0.1,0,0.1,0.1,0.2c1.7,1.7,1.7,4.6,0,6.3
			c0,0.1-0.1,0.1-0.1,0.2c0,0.1,0,0.1,0.1,0.2c0.1,0.1,0.3,0.1,0.4,0c0.9-0.9,1.4-2.2,1.4-3.5C12.5,6.2,12,4.9,11.1,4z M8.3,0.1
			C8,0,7.7,0,7.4,0.1L3,3.5H1.6C0.7,3.5,0,4.2,0,5.2v4.7c0,0.9,0.7,1.7,1.6,1.7H3l4.4,3.3C7.6,15,7.7,15,7.9,15c0.1,0,0.3,0,0.4-0.1
			c0.3-0.2,0.4-0.4,0.4-0.8V0.9C8.7,0.6,8.6,0.3,8.3,0.1z M8.3,14.2c0,0.1-0.1,0.3-0.2,0.3c-0.1,0.1-0.3,0.1-0.4,0l-4.5-3.4H1.6
			c-0.6,0-1.2-0.5-1.2-1.2V5.2c0-0.7,0.5-1.2,1.2-1.2h1.5l4.5-3.4c0.1-0.1,0.3-0.1,0.4,0c0.1,0.1,0.2,0.2,0.2,0.3V14.2z" />
            </g>
        </g>
    </svg> -->
    <!-- 用户通知图标 蓝色喇叭 -->
<!--     <svg x="101" y="28" viewBox="0 0 15.7 15" width="15.7" height="15">
        <g id="XMLID_2589_">
            <g>
                <path fill="#26A4AF" d="M12.8,0.4c0-0.1-0.1-0.1-0.2-0.1h0c-0.1,0-0.1,0-0.2,0.1c0,0.1-0.1,0.1-0.1,0.2c0,0.1,0,0.1,0.1,0.2
			c3.6,3.7,3.6,9.8,0,13.5c-0.1,0.1-0.1,0.3,0,0.4c0.1,0.1,0.3,0.1,0.4,0c1.8-1.9,2.8-4.4,2.8-7.1C15.7,4.8,14.7,2.3,12.8,0.4z
			 M11.1,4c0-0.1-0.1-0.1-0.2-0.1c-0.1,0-0.1,0-0.2,0.1c0,0.1-0.1,0.1-0.1,0.2c0,0.1,0,0.1,0.1,0.2c1.7,1.7,1.7,4.6,0,6.3
			c0,0.1-0.1,0.1-0.1,0.2c0,0.1,0,0.1,0.1,0.2c0.1,0.1,0.3,0.1,0.4,0c0.9-0.9,1.4-2.2,1.4-3.5C12.5,6.2,12,4.9,11.1,4z M8.3,0.1
			C8,0,7.7,0,7.4,0.1L3,3.5H1.6C0.7,3.5,0,4.2,0,5.2v4.7c0,0.9,0.7,1.7,1.6,1.7H3l4.4,3.3C7.6,15,7.7,15,7.9,15c0.1,0,0.3,0,0.4-0.1
			c0.3-0.2,0.4-0.4,0.4-0.8V0.9C8.7,0.6,8.6,0.3,8.3,0.1z M8.3,14.2c0,0.1-0.1,0.3-0.2,0.3c-0.1,0.1-0.3,0.1-0.4,0l-4.5-3.4H1.6
			c-0.6,0-1.2-0.5-1.2-1.2V5.2c0-0.7,0.5-1.2,1.2-1.2h1.5l4.5-3.4c0.1-0.1,0.3-0.1,0.4,0c0.1,0.1,0.2,0.2,0.2,0.3V14.2z" />
            </g>
        </g>
    </svg> -->
    <!-- 用户通知展开图标  蓝色三角形 -->
    <svg x="125" y="4" viewBox="0 0 10 10" width="10" height="10">
        <path id="XMLID_776_" fill="#16A4AF" d="M5,6L0,0h10L5,6z" />
    </svg>
    <!-- 头上长草 会员标示图标 -->
    <svg x="140" y="4" viewBox="0 0 18.6 18.6" width="18.6" height="18.6">
        <path id="XMLID_8726_" fill="#F1CC52" d="M8.4,18.6L0,10.3L8.4,0L7.5,6.5l6.1-1.4l-1.4,6.1l6.5-0.9L8.4,18.6z" />
    </svg>
    <!-- 会员标识图标 -->
<!--     <svg x="140" y="4" viewBox="0 0 22.5 25.2" width="22.5" height="25.2">
        <g id="XMLID_2260_">
            <g id="XMLID_2829_">
                <g>
                    <path fill="#E6433F" d="M8.8,16.4L7,22.1h0v-5.7H4.2l0.6,8.8H8l3.6-8.8l-1.5,8.8h2.6l1.5-8.8H8.8z M20.2,17.8
                c-0.2-0.3-0.4-0.6-0.6-0.8c-0.2-0.2-0.5-0.3-0.8-0.4c-0.3-0.1-0.6-0.1-0.9-0.1h-2.9l-1.5,8.8h2.5l0.5-2.8H17
                c0.5,0,0.9-0.1,1.4-0.2c0.4-0.1,0.8-0.4,1.1-0.7c0.3-0.3,0.5-0.7,0.7-1.1c0.2-0.4,0.3-0.9,0.3-1.5C20.4,18.5,20.3,18.1,20.2,17.8
                z M17.7,20c-0.2,0.2-0.4,0.3-0.6,0.3h-0.4l0.3-1.7h0.4c0.2,0,0.3,0.1,0.4,0.2c0.1,0.1,0.2,0.3,0.2,0.5C18,19.6,17.9,19.9,17.7,20
                z" />
                </g>
            </g>
            <g id="XMLID_2823_" opacity="0.1">
                <path id="XMLID_2826_" fill="#FFFFFF" d="M18.7,16.6c-0.3-0.1-0.6-0.1-0.9-0.1h-2.9l-0.4,2.3l4.6-2C19,16.6,18.8,16.6,18.7,16.6z" />
                <polygon id="XMLID_2825_" fill="#FFFFFF" points="7,16.4 4.2,16.4 4.6,23.1 7,22.1        " />
                <polygon id="XMLID_2824_" fill="#FFFFFF" points="13.8,19 14.2,16.4 8.8,16.4 7,22 9.8,20.8 11.6,16.4 11,20.3         " />
            </g>
            <path id="XMLID_2822_" fill-rule="evenodd" clip-rule="evenodd" fill="#EBA32A" d="M21.2,4.3c-0.7,0-1.3,0.6-1.3,1.3
        c0,0.3,0.1,0.6,0.3,0.8l-4.9,4l-3.7-8c0.5-0.2,0.8-0.7,0.8-1.2C12.3,0.6,11.8,0,11,0c-0.7,0-1.3,0.6-1.3,1.3c0,0.5,0.3,0.9,0.7,1.1
        l-3.1,8L2.2,6.6C2.4,6.4,2.6,6,2.6,5.6c0-0.7-0.6-1.3-1.3-1.3C0.6,4.3,0,4.9,0,5.6C0,6.4,0.6,7,1.3,7c0.1,0,0.2,0,0.3,0l2.5,8.6
        h14.6l2.1-8.7C20.9,6.9,21,7,21.2,7c0.7,0,1.3-0.6,1.3-1.3C22.5,4.9,21.9,4.3,21.2,4.3z" />
            <path id="XMLID_2821_" opacity="0.2" fill-rule="evenodd" clip-rule="evenodd" fill="#FFFFFF" d="M21.2,4.3c-0.7,0-1.3,0.6-1.3,1.3
        c0,0.3,0.1,0.6,0.3,0.8l-4.9,4l-3.7-8c0.5-0.2,0.8-0.7,0.8-1.2C12.3,0.6,11.8,0,11,0c-0.7,0-1.3,0.6-1.3,1.3c0,0.5,0.3,0.9,0.7,1.1
        l-3.1,8L2.2,6.6C2.4,6.4,2.6,6,2.6,5.6c0-0.7-0.6-1.3-1.3-1.3C0.6,4.3,0,4.9,0,5.6C0,6.4,0.6,7,1.3,7c0.1,0,0.2,0,0.3,0l2.5,8.6h7
        L22.3,5.1C22.1,4.6,21.7,4.3,21.2,4.3z" />
            <path id="XMLID_2262_" opacity="0.2" fill-rule="evenodd" clip-rule="evenodd" fill="#FFFFFF" d="M11,0c-0.7,0-1.3,0.6-1.3,1.3
        c0,0.5,0.3,0.9,0.7,1.1l-3.1,8L2.2,6.6C2.4,6.4,2.6,6,2.6,5.6c0-0.7-0.6-1.3-1.3-1.3C0.6,4.3,0,4.9,0,5.6C0,6.4,0.6,7,1.3,7
        c0.1,0,0.2,0,0.3,0l2.5,8.6h7L11,0C11,0,11,0,11,0z" />
            <path id="XMLID_2261_" opacity="0.2" fill-rule="evenodd" clip-rule="evenodd" fill="#FFFFFF" d="M0,5.6C0,6.4,0.6,7,1.3,7
        c0.1,0,0.2,0,0.3,0l2.5,8.6h7L0.2,4.9C0.1,5.1,0,5.4,0,5.6z" />
        </g>
    </svg> -->
    <!-- 环信 联系客服按钮图标 -->
<!--     <svg x="170px" y="4px" viewBox="0 0 19.6 19.6" width="19.6" height="19.6">
        <g id="XMLID_8602_">
            <circle id="XMLID_8511_" fill="#FFFFFF" cx="9.8" cy="9.8" r="9.8" />
            <g id="XMLID_1573_">
                <g id="XMLID_7318_">
                    <polygon id="XMLID_7340_" fill="#3EBABF" points="6.8,15 7.4,17.2 13.5,17.2 13.8,13.7 9.6,16.3           " />
                </g>
                <g id="XMLID_2195_">
                    <path id="XMLID_5922_" fill="#3EBABF" d="M14.5,11.3c-0.3-0.5-0.5,0-0.9-0.5c-0.4-0.5,0.7-1.1-0.2-2.2C12.8,7.8,10.9,8.1,9,9
                    s-3.8,3.4-2.6,5.2c0.7,1.1,3.2,1.4,5.2,0.5C13.5,13.7,14.9,12,14.5,11.3z M12.7,12.5c-0.3,0-0.6-0.3-0.6-0.6
                    c0-0.3,0.3-0.6,0.6-0.6c0.3,0,0.6,0.3,0.6,0.6C13.3,12.2,13,12.5,12.7,12.5z" />
                </g>
                <g id="XMLID_2076_">
                    <path id="XMLID_2194_" fill="#19A0C6" d="M9,9c-1.5,0.7-3.1,2.5-3,4.1l7-4.7C12.3,7.9,10.7,8.2,9,9z" />
                </g>
                <g id="XMLID_1742_">
                    <polygon id="XMLID_2062_" fill="#3EBABF" points="3.9,5.4 6.3,9.6 3.9,10.7 4.6,12.3 14.6,7.6 13.9,6.2 12.4,7 10.3,1.7            " />
                </g>
            </g>
        </g>
    </svg> -->
    <!-- 通知图标 -->
    <svg x="100" y="4" width="19.4" height="18.7" viewBox="0 0 19.4 18.7">
        <g>
            <g id="XMLID_8723_">
                <path id="XMLID_8845_" fill="#FFFFFF" d="M13.1,14.2c-0.2,0-0.3-0.1-0.4-0.2c-0.2-0.2-0.2-0.6,0-0.8c2.9-2.9,1.4-6.2,0-7.6
                c-0.2-0.2-0.2-0.6,0-0.8c0.2-0.2,0.6-0.2,0.8,0c2.3,2.4,3.1,6.2,0,9.3C13.4,14.1,13.2,14.2,13.1,14.2z" />
            </g>
            <g id="XMLID_8724_">
                <path id="XMLID_8844_" fill="#FFFFFF" d="M14.9,18.7c-0.2,0-0.3-0.1-0.4-0.2c-0.2-0.2-0.2-0.6,0-0.8c6.4-6.4,3-13.5,0-16.7
                c-0.2-0.2-0.2-0.6,0-0.8c0.2-0.2,0.6-0.2,0.8,0c4.5,4.7,6.2,12.2,0,18.3C15.2,18.6,15.1,18.7,14.9,18.7z" />
            </g>
            <g id="XMLID_8659_">
                <path id="XMLID_8847_" fill="#FFFFFF" d="M9.4,18.3c-0.2,0-0.4-0.1-0.5-0.2l-5.3-4H2c-1.1,0-2-0.9-2-2V6.5c0-1.1,0.9-2,2-2h1.7
                l5.3-4c0.3-0.2,0.7-0.2,1,0c0.3,0.2,0.5,0.5,0.5,0.9v15.9c0,0.4-0.2,0.7-0.5,0.9C9.8,18.3,9.6,18.3,9.4,18.3z" />
            </g>
        </g>
    </svg>
    <!-- logo -->
    <svg x="0" y="60" width="133.307" height="48.405" viewBox="0 0 133.307 48.405">
        <rect id="XMLID_1183_" x="-657.652" y="-1927.755" display="none" fill-rule="evenodd" clip-rule="evenodd" fill="#5D5D5D" width="1668.667" height="4165.667" />
        <g>
            <g id="XMLID_1196_">
                <polygon id="XMLID_1197_" fill="#FFFFFF" points="9.119,41.614 10.972,48.405 30.062,48.405 31.139,37.704 18.016,45.837 		" />
                <g id="XMLID_1198_">
                    <path id="XMLID_1207_" fill="#FFFFFF" d="M7.941,30.696l20.461-9.611L6.851,35.601c0.08,1.14,0.412,2.254,1.087,3.293 c2.302,3.542,10.096,4.417,16.09,1.577c5.994-2.839,10.573-8.082,9.157-10.348c-0.927-1.484-1.543-0.156-2.814-1.572 c-1.27-1.416,2.152-3.558-0.664-6.975c-0.23-0.279-0.52-0.51-0.862-0.698l4.745-2.229l-2.203-4.42l-4.683,2.469L20.129,0 L0,11.583l7.518,13.303l-7.462,3.418l2.137,5.092l5.743-2.697c-0.007,0.015-0.012,0.03-0.02,0.045 M27.493,33.752 c-1.057,0-1.913-0.857-1.913-1.913c0-1.057,0.857-1.913,1.913-1.913c1.057,0,1.913,0.857,1.913,1.913 C29.406,32.895,28.549,33.752,27.493,33.752z" />
                </g>
            </g>
            <g id="XMLID_1173_">
                <g id="XMLID_1174_">
                    <g id="XMLID_1190_">
                        <path id="XMLID_1191_" fill="#FFFFFF" d="M43.449,34.14c-1.662-0.019-2.366-0.602-2.36-2.002V18.5h16.754v9.047 c-0.004,1.718-0.546,2.355-2.359,2.355h-5.95v-2.355h1.728c1.147,0.003,1.242-0.228,1.242-1.177v-5.632h-6.322v10.224 c-0.001,0.85,0.281,1.177,1.117,1.177h10.545v2.002H43.449z M52.255,15.253h-5.454l-0.248,1.692h-5.464l0.869-5.176h14.767 l1.118,5.176h-5.34L52.255,15.253z M59.841,33.316V11.769h2.349v21.547H59.841z M64.312,34.14V11.769h5.34v20.37 c0,1.447-0.598,2.002-2.359,2.002H64.312z" />
                    </g>
                    <g id="XMLID_1188_">
                        <polygon id="XMLID_1189_" fill="#FFFFFF" points="101.443,15.772 94.861,15.772 94.861,14.83 79.338,14.83 79.338,15.772 72.756,15.772 72.756,12.593 83.809,12.593 83.684,11.769 90.142,11.769 90.391,12.593 101.443,12.593 				" />
                    </g>
                    <g id="XMLID_1186_">
                        <path id="XMLID_1187_" fill="#FFFFFF" d="M72.756,24.083l4.595-0.824l-4.595-0.706v-2.709l12.915,2.002l9.19-1.53 c0.328-0.072,0.428-0.417,0.366-0.585c-0.027-0.072-0.118-0.198-0.366-0.198H75.24c-1.657,0-2.483-0.588-2.483-1.766v-0.941 h7.575c-0.002,0.727,0.198,0.827,0.993,0.824h20.118v2.902c0,1.084-0.588,1.812-2.235,2.119l-4.222,0.707l6.457,1.06v2.708 L86.665,24.79l-13.908,2.355V24.083z" />
                    </g>
                    <g id="XMLID_1181_">
                        <path id="XMLID_1182_" fill="#FFFFFF" d="M101.443,27.38v4.758c0.005,1.41-0.715,2.008-2.484,2.002H72.756v-6.76H101.443z M95.234,30.962v-1.345H78.966v2.521h15.026C95.108,32.139,95.235,31.921,95.234,30.962z" />
                    </g>
                    <g id="XMLID_1175_">
                        <path id="XMLID_1176_" fill="#FFFFFF" d="M108.646,34.14h-3.974l0.745-5.367h-0.745V11.769h10.68v14.767 c-0.009,1.629-0.582,2.239-2.36,2.238h-1.863V14.006h-2.359v14.179h0.869L108.646,34.14z M114.483,30.49l0.869,3.651h-4.098 l-0.869-3.651H114.483z M133.235,18.598v13.541c0.006,1.392-0.685,2.008-2.36,2.002h-13.774V18.598h1.118v-6.829h5.961v1.177 h9.055v2.238h-9.055v3.414H133.235z M127.646,30.962V20.835h-5.205v11.304h3.963C127.484,32.13,127.648,31.903,127.646,30.962z" />
                    </g>
                </g>
            </g>
            <g id="XMLID_231_">
                <path id="XMLID_1171_" fill="#FFFFFF" d="M46.886,41.333l-1.443,0.509c-0.283-1.16-0.821-1.74-1.613-1.74 c-1.189,0.113-1.811,1.175-1.868,3.184c0.028,2.094,0.637,3.169,1.825,3.226c0.934,0,1.514-0.707,1.74-2.122l1.486,0.424 c-0.453,2.066-1.528,3.07-3.226,3.014c-2.179-0.057-3.283-1.571-3.311-4.542c0.113-2.858,1.245-4.4,3.396-4.627 C45.457,38.688,46.462,39.579,46.886,41.333z" />
                <path id="XMLID_1169_" fill="#FFFFFF" d="M52.871,38.872h1.486v8.786h-1.486v-3.82h-3.353v3.82h-1.486v-8.786h1.486v3.565h3.353 V38.872z" />
                <path id="XMLID_1167_" fill="#FFFFFF" d="M61.361,38.872h1.485v5.009c0.028,2.632-1.175,3.933-3.608,3.905 c-2.349,0.085-3.495-1.203-3.438-3.863v-5.051h1.486v5.009c-0.028,1.755,0.622,2.618,1.952,2.589 c1.443,0.057,2.151-0.807,2.123-2.589V38.872z" />
                <path id="XMLID_1164_" fill="#FFFFFF" d="M69.68,47.658L69,45.578h-3.141l-0.721,2.08h-1.486l3.141-8.786h1.274l3.141,8.786H69.68 z M66.326,44.135h2.207l-1.104-3.226L66.326,44.135z" />
                <path id="XMLID_1147_" fill="#FFFFFF" d="M77.618,45.069v-6.197h1.485v8.786h-1.485l-4.075-6.197v6.197h-1.486v-8.786h1.528 L77.618,45.069z" />
                <path id="XMLID_1145_" fill="#FFFFFF" d="M83.857,42.819h3.735v3.396c-0.707,1.075-1.853,1.613-3.438,1.613 c-2.519-0.113-3.821-1.613-3.905-4.499c0.141-2.914,1.429-4.471,3.863-4.669c1.783-0.028,2.943,0.864,3.481,2.674l-1.443,0.552 c-0.34-1.245-1.019-1.853-2.038-1.825c-1.556,0.142-2.349,1.217-2.377,3.226c0.057,2.037,0.863,3.113,2.42,3.226 c0.792,0,1.443-0.255,1.952-0.764V44.22h-2.25V42.819z" />
                <path id="XMLID_1129_" fill="#FFFFFF" d="M93.705,47.658l-2.419-3.99l-0.892,1.019v2.971h-1.486v-8.786h1.486v3.735l3.099-3.735 h1.868l-3.141,3.693l3.226,5.094H93.705z" />
                <path id="XMLID_1125_" fill="#FFFFFF" d="M96.209,38.872h1.486v8.786h-1.486V38.872z" />
                <path id="XMLID_1122_" fill="#FFFFFF" d="M104.825,40.272h-2.25v7.386h-1.528v-7.386h-2.334v-1.401h6.113V40.272z" />
                <path id="XMLID_1120_" fill="#FFFFFF" d="M105.632,45.833h1.91v1.825h-1.91V45.833z" />
                <path id="XMLID_1118_" fill="#FFFFFF" d="M114.928,41.333l-1.443,0.509c-0.283-1.16-0.821-1.74-1.613-1.74 c-1.189,0.113-1.811,1.175-1.868,3.184c0.028,2.094,0.637,3.169,1.825,3.226c0.934,0,1.514-0.707,1.74-2.122l1.486,0.424 c-0.453,2.066-1.528,3.07-3.226,3.014c-2.179-0.057-3.283-1.571-3.311-4.542c0.113-2.858,1.245-4.4,3.396-4.627 C113.499,38.688,114.504,39.579,114.928,41.333z" />
                <path id="XMLID_769_" fill="#FFFFFF" d="M119.554,38.659c2.433,0.17,3.707,1.698,3.821,4.584 c-0.057,2.971-1.345,4.499-3.863,4.584c-2.434-0.142-3.707-1.641-3.82-4.499C115.833,40.386,117.12,38.829,119.554,38.659z M119.512,46.512c1.556-0.085,2.363-1.16,2.42-3.226c-0.085-2.038-0.877-3.113-2.377-3.226c-1.5,0.113-2.292,1.203-2.377,3.268 C117.234,45.366,118.012,46.427,119.512,46.512z" />
                <path id="XMLID_447_" fill="#FFFFFF" d="M131.482,38.872h1.825v8.786h-1.485v-5.136l0.085-1.274l-2.462,6.41h-1.103l-2.462-6.325 l0.085,1.231v5.094h-1.486v-8.786h1.868l2.547,6.579L131.482,38.872z" />
            </g>
        </g>
    </svg>

    <svg x="0" y="120" viewBox="0 0 186.7 72.1" width="186.7" height="72.1">
        <g id="XMLID_758_">
            <g id="XMLID_2981_">
                <path id="XMLID_2988_" fill="#AA5402" d="M167.7,33.7c0,0,5.9-0.3,7,7s0.3,4.4,1.9,7.7c1.6,3.3,2.4,3.7,0.2,8.4
			c-2.2,4.7-9.9,2.4-9.9,2.4s-5.4-3-4.8-13.9c-0.8-0.2-8.9-2.5-3.9-12.2C158.6,32.8,167.7,33.7,167.7,33.7z" />
                <path id="XMLID_2987_" fill="none" stroke="#AA5402" stroke-width="2.5903" stroke-linecap="round" stroke-miterlimit="10" d="
			M181.3,45.4c0.6,2.8-0.9,6.2-6.3,7.3" />
                <g id="XMLID_2985_">
                    <path id="XMLID_2986_" fill="#AA5402" d="M172.1,62.8l-1.9-3l-3.2-4.3c-0.4-1.2,3.5-3.2,4.7-3.6c1.2-0.4,5.1,1.1,6,1.3
				c0.9,0.2-0.6,4.5-0.6,4.5c-0.1,0.6,0.2,3.2,0.9,3.1c1.4-0.3,5.7-0.6,7.6-0.6c0.7,0,2.5,2.5-0.5,3.4c-1.7,0.5-5.5,1.2-7.9,1.6
				C175.2,65.6,172.8,64.6,172.1,62.8z" />
                </g>
                <g id="XMLID_2983_">
                    <path id="XMLID_2984_" fill="#AA5402" d="M157.3,67.9c-0.8,0-1.4-1.1-1.4-2.4c0-0.9-0.3-4,0.7-7.7c0.9-3.1,10.4-4.4,11.2-4
				c1.2,0.5,1.7,1.8,1.2,3c-0.5,1.2-0.9,2.4-2.1,2.4c-1.6,0.1-6.2,1.1-6.6,1.4c0,0-0.8,2.7-0.9,5.1
				C159.4,67.6,158.1,67.9,157.3,67.9z" />
                </g>
                <path id="XMLID_2982_" fill="#D2AA85" d="M162.2,46.6c0.3,6.6,3,9.6,4.2,10.6c0.7-1.5,0.8-3.6,0.1-5.7
			C165.6,49.1,163.9,47.2,162.2,46.6z" />
            </g>
            <path id="XMLID_2980_" fill="#AA5402" d="M86.5,60.6L80.9,59l-1.4-0.4l0,0l0,0l0,0c0,0,0.2,0,0.1,0l0,0l0,0l-0.1,0l0,0l0,0
		c0.4,0.1,0.1,0,0.2,0l0,0l0,0l0,0c0,0-0.1,0,0,0c0,0,0.1,0,0.1,0l0,0l0,0c0,0,0.1,0,0.1,0c0.1,0,0.2-0.1,0.3-0.2
		c0.1-0.1,0.1-0.1,0.2-0.2c0-0.1,0-0.1,0-0.2c0-0.1,0-0.1,0-0.2c0-0.1-0.1-0.1-0.1-0.2l-0.3-0.5l2.9,4.8c0.5,0.9,0.3,2-0.6,2.5
		c-0.7,0.4-1.7,0.3-2.2-0.3l-3.9-4L75.9,60l-0.2-0.4c-0.2-0.5-0.4-1-0.4-1.6c0-0.5,0-1.1,0.2-1.6c0.2-0.5,0.4-1,0.7-1.5
		c0.3-0.4,0.7-0.8,1.2-1.1c0.5-0.3,1.1-0.5,1.6-0.6c0.1,0,0.3,0,0.4-0.1l0.1,0c0,0,0.1,0,0.1,0c0.1,0,0.2,0,0.3,0l0.2,0l0,0l0,0l0,0
		l0.2,0l0.1,0l0,0l0,0l0.1,0l0,0l0,0l1.4,0.2l5.7,0.8c1.8,0.2,3.1,1.9,2.8,3.7S88.8,61,87,60.7C86.8,60.7,86.6,60.7,86.5,60.6z" />
            <linearGradient id="XMLID_2_" gradientUnits="userSpaceOnUse" x1="74.2547" y1="32.8913" x2="74.9667" y2="48.951">
                <stop offset="0" style="stop-color:#934A1D" />
                <stop offset="1" style="stop-color:#804A00" />
            </linearGradient>
            <path id="XMLID_2979_" fill="url(#XMLID_2_)" d="M78.7,46.6c-6.7-7.3-5.3-14.6-5.3-14.6L70,31.6c0,4.8,2.4,15.2,7.2,17.4
		C77.4,49.4,80,48.1,78.7,46.6z" />
            <path id="XMLID_2978_" fill="none" stroke="#AA5402" stroke-width="1.6898" stroke-miterlimit="10" d="M92.2,59.1
		c0,0,3.1-3.1,5.6-2.8s6.5,0.8,4.2-7.3c-2.2-8.1,10.4-5.6,10.4-5.6" />
            <path id="XMLID_2977_" fill="#AA5402" d="M84.7,46.8c0,0,2.4-0.2,5,6.3c1.3,1.7,0.3,1.1,2.5,2.2c2.9,1.4,1.4,7-2,8.1
		c-2.5,3.9-1.3,6.5-1.3,6.5s-0.4,1.4-1.7,1.6c-1.3,0.2-2-1.3-2-1.3s-2-3.4-0.9-7.8c-5-2-7.1-7.9-7.5-12.6c-0.1-1.1,0.1-0.3-0.1-1.1
		c1-2.6,2.3-1.6,3-3.3c0.5-1.3-2.3-5.8-1.8-6C80.5,38.3,84.7,46.8,84.7,46.8z" />
            <linearGradient id="XMLID_3_" gradientUnits="userSpaceOnUse" x1="81.0119" y1="46.3916" x2="81.0869" y2="48.9413">
                <stop offset="0" style="stop-color:#934A1D" />
                <stop offset="1" style="stop-color:#934A1D;stop-opacity:0" />
            </linearGradient>
            <polygon id="XMLID_2976_" fill="url(#XMLID_3_)" points="77.3,45.5 79,49 84.7,48 83.8,44.9 	" />
            <g id="XMLID_2961_">
                <path id="XMLID_2975_" fill="#F9CBB4" d="M76.6,31.7c0,0-0.6-1.2-1.3,0.8s-1,4,0.3,4.1C76.9,36.8,76.6,31.7,76.6,31.7z" />
                <path id="XMLID_2974_" fill="#AA5402" d="M76.9,31.2c-1.1,1.4-5.3,10.2-0.8,13.8c4.5,3.6,9.4,0.7,10.8-0.3c1.4-1,6.3-6.6,3.7-12.7
			C88.3,26.9,81,26,76.9,31.2z" />
                <path id="XMLID_2973_" fill="#F9CBB4" d="M81.4,33.6c0.1,0.1-2.5,1.7-1.3,2.8c0.3,0.2,1.1-1.2,1-1.8c0-0.4,0.6-0.6,0.5,0.1
			s-0.3,1.5,0.3,2.2c0.2,0.1,0.3-0.5,0.5-1.8s1.8-3.7,3.8-2.5c3.4,1.9,3.1,7.2-2,7.6c0.5,0,2.7-0.4,1.4,2.8
			c-0.4,0.6-4.1,5.1-8.8,1.6c-3.5-2.7-1.9-7.4-1.3-8c0.3-0.3,0.5,0.1,0.5,0.1s0.2-4.4,4-5.7c0.3-0.1,0.5,0.2,0.5,0.2l0.3,0.2
			c0,0-1.1,0.4-1.2,0.7c0.3-0.1,1,0.1,1.2,0.3c0,0.1-2.1,0.3-1.5,1.4C79.8,34.3,81.4,33.6,81.4,33.6z" />
                <path id="XMLID_2972_" fill="#A43A3B" d="M77.1,39.4c0.4-0.2-0.4,1.4,1.5,2.3c1.9,0.9,3.4,0.1,4.4,0.7s-2.8,4.1-6.2,1.5
			C75.8,43,75.4,40,77.1,39.4z" />
                <path id="XMLID_2971_" fill="#F9CBB4" d="M87.3,43.8c2.8,2.3,6.3-3,5.5-4.3c-0.4-0.7-1.3-0.8-2-0.7c-0.9,0-1.7,0.6-1.9,1.5
			c-0.1,0.3-0.1,0.7,0.2,1c-0.2,0.3-0.3,0.2-0.5,0.2c-0.2,0.1-1,0.3-1.3,1.4C87.3,43.2,87.3,43.8,87.3,43.8z" />
                <path id="XMLID_2970_" opacity="0.5" fill="#AA5413" d="M89.9,40.1c0.2-0.3,1-0.6,1.6,0.1s-0.6,2.4-1.9,3.2
			c-1.3,0.8-1.9,0.4-1.8-0.6c0.1-0.9,0.5-1.1,1.1-1.1s0.7-0.3,0.6-0.8C89.4,40.5,89.9,40.1,89.9,40.1z" />
                <ellipse id="XMLID_2969_" transform="matrix(0.8643 0.503 -0.503 0.8643 30.6056 -37.4785)" fill="#222222" cx="84.8" cy="38" rx="0.9" ry="1.5" />
                <ellipse id="XMLID_2968_" transform="matrix(0.8643 0.503 -0.503 0.8643 30.664 -37.5874)" fill="#FFFFFF" cx="85" cy="38" rx="0.2" ry="0.4" />
                <ellipse id="XMLID_2967_" transform="matrix(0.9201 0.3917 -0.3917 0.9201 20.1208 -27.8289)" fill="#222222" cx="78.3" cy="35.4" rx="0.7" ry="1.4" />
                <ellipse id="XMLID_2966_" transform="matrix(0.9201 0.3917 -0.3917 0.9201 20.1362 -27.8975)" fill="#FFFFFF" cx="78.4" cy="35.4" rx="0.1" ry="0.4" />
                <path id="XMLID_2965_" fill="#F47273" d="M83,42.4c-1-0.6-2.5,0.2-4.4-0.7c-0.6-0.3-0.9-0.6-1.1-0.9c-0.6,0.3-1.1,0.7-1.6,1.2
			c0.1,0.8,0.4,1.5,0.9,1.9C80.2,46.5,84,42.9,83,42.4z" />
                <ellipse id="XMLID_2964_" transform="matrix(0.8901 0.4557 -0.4557 0.8901 26.3634 -32.4944)" fill="#AA5402" cx="80.6" cy="38.4" rx="1" ry="0.6" />
                <path id="XMLID_2963_" fill="#222222" d="M85.2,35.9c0,0,1.9-0.4,2.6,0.1c0.3-0.6,0.3-0.6,0.3-0.6S85.9,35.2,85.2,35.9z" />
                <path id="XMLID_2962_" fill="#222222" d="M79.3,34c0,0-0.4-1.2-1.2-1.1c0.2-0.6,0.2-0.6,0.2-0.6S79.3,33.1,79.3,34z" />
            </g>
            <path id="XMLID_2960_" fill="#AC2C17" d="M89.4,31.5L88.6,33c0,0-6,0-5.3,3.2c0.7,3.2,5.3,8.5,7,6.8c-0.3,2.8,7.2,4.1,9.8,4.9
		C94.7,43.2,86,36,89.4,31.5z" />
            <path id="XMLID_2959_" fill="#FFD028" d="M115.7,25.1c10.9-3.9,35.4-9.3,59.4,4.1c8.7,4.8,11.1,28.5,11.1,28.5
		c-2.8-0.4-7-3.9-9.6-4.2c-2-0.3-2.3,4-4.2,3.8c-1.3-0.2-3.8-4.2-5.1-4.3c-1.1-0.1-0.9,3.7-2,3.6c-2.3-0.2-6.1-3.5-8.2-3.7
		c-1-0.1-0.3,3-1.3,2.9c-2.3-0.2-7.5-3.6-9.6-3.7c-2.1-0.1-1.2,3.1-3.1,3.1c-1.5,0-4.6-2.5-6.1-2.5c-1.5,0-1.4,2.5-2.8,2.5
		c-1.5,0-4.9-2.7-6.3-2.6c-1.5,0.1-1,2.9-2.5,2.9c-0.8,0-5.7-3.7-6.4-3.7c-1.2,0.1-1.4,4-2.5,4.1c-1.4,0.1-2.2-5.1-2.2-5.1
		s-2.1,5.7-3.7,5.8c-1.7,0.2-2.3-2.5-3.8-2.7c-1.2-0.2-3.2,2.3-4.3,1.9c-10-3.3-15.1-18.5-12.1-30.9c0.3-1.3-3.3-12.4-2.8-13.4
		C90.6,5.1,102.2,29.9,115.7,25.1z" />
            <path id="XMLID_2958_" fill="#E03F26" d="M175,29.2c-24.1-13.2-48.4-7.9-59.3-4c-10,3.5-19-9.2-24.2-13.5
		c-0.7,10.6-9.9,34,11.8,43.2c0.1-1.5,1.8-4.1,4.2-3.1c1.3,0.5,2.8,2.4,2.8,2.4s3-5.5,3.4-5.9c0.4-0.4,2.6,5.9,2.6,5.9
		s1.7-3,1.5-4.4c-0.2-1.4,3.4,2.1,6.1,3c2.7,0.9,4.3-2.4,4.3-3c0-0.6,4,3.5,5.2,3.6c1.2,0.1,3.2-3.6,3.2-3.6s1.8,2,3.8,2.8
		c2.1,0.8,4.3-2,4.3-3.1c0-1.1,5,1.6,9.2,4.1c0.5-1.4,0.5-2.3,0.5-2.3s7.8,3.2,9.1,2.7c1.3-0.5,3.6-4.1,3.6-4.1l5.1,5.9l3.2-4.4
		c0,0,7,3.4,8,3.5c1,0.2,0.7-5,0.7-5l0.6-1.4C183.5,41,179.7,31.7,175,29.2z" />
            <path id="XMLID_2957_" fill="#FFD028" d="M99.6,14.9c0,0,1.1-4.4,4.7,1.5c3.6,6,5.3,9,9.2,10.4c-2.8,1.1-5.7-0.1-5.7-0.1
		s1.6,4.6,6.8,4.4c-0.7,0.4-4.1,5.5-8.4,2c0.2,0.9-1.2,3.4,4,7.8c-1.4,0.3-3.3-0.7-3.3-0.7l1.7,1.8c0,0-5.9,1-8.1-4.8
		c0.5,3.1,2.9,7.6,2.9,7.6S94,44.1,93,36.6C92,29.1,99.6,14.9,99.6,14.9z" />
            <path id="XMLID_2956_" fill="#AA5402" d="M91,33.2c0,0-0.3,11-6.1,14c1.7,2.1,3.1,3.2,3.1,3.2s6.5-6.9,5.3-17.5S91,33.2,91,33.2z" />
            <g id="XMLID_2950_">
                <polyline id="XMLID_2955_" fill="#E03F26" points="89.2,28.3 89.4,27.8 89.4,27.8 89.2,28.3 		" />
                <path id="XMLID_2954_" fill="#E03F26" d="M107.3,41.7C107.3,41.7,107.3,41.7,107.3,41.7C107.3,41.7,107.3,41.7,107.3,41.7z" />
                <path id="XMLID_2953_" fill="#E03F26" d="M106.4,38.4" />
                <path id="XMLID_2952_" fill="#E03F26" d="M108.5,25.5" />
                <path id="XMLID_2951_" fill="#E03F26" d="M112.3,31.9c-5.7-0.9-7-5.8-7-5.8s3.4-1.5,4.5-1.5c-1.1-1-3.4-4.4-6.3-9.3
			c-3.7-6-5.1-3.5-5.1-3.5l-8.4,15l0,0l-0.6,1c-1.7,4.5,6.3,14,11.3,15.3l0,0c0.3,0.1,0.5,0.2,0.7,0.3c-1.7-0.8-1.3-6.3-1.8-8.7
			c1.5,4.5,4.9,5.7,7.6,6.9c-1-0.5-2.6-5.1-2.6-5.1s1.3,2.1,3.5,3.6c-1.9-2-3.8-9.2-3.8-9.2C107.2,34.4,108.4,33.6,112.3,31.9z" />
            </g>
            <path id="XMLID_2949_" fill="#D22D2A" d="M102.8,20.7c0,0,1.7,1.8,1.8,2.5c0.1,3.8-2,15.7-12.5,15C82,37.6,48.8,24.9,73.9,7.7
		C84,6.9,98,3,102.8,20.7z" />
            <path id="XMLID_2948_" fill="#AC2C17" d="M108.9,12.2c0.1-0.5-0.4-0.9-0.9-0.7c-2.6,1.2-9.5,4.3-12.3,4.3c-3.6,0,1.7,9.4,7.8,8.7
		C105.4,24,108.5,15.4,108.9,12.2z" />
            <path id="XMLID_2947_" fill="#E03F26" d="M72,0c0,0,5.3,3,7.7,6.4c-1.6,1.1-9,3.2-9,3.2S70.6,0.4,72,0z" />
            <path id="XMLID_2946_" fill="#E03F26" d="M108,11.5c-2.6,1.2-9.5,4.3-12.3,4.3c-1.1,0-1.2,0.9-0.7,2.1C98,17.7,102.9,16.5,108,11.5
		C108,11.5,108,11.5,108,11.5z" />
            <path id="XMLID_2945_" fill="#F8E4D5" d="M67.5,11.2c0,0-4.1,3.8-1.2,8.4c1.5,2.4,3.1,3.7,4.9,3.5c1.2-0.1,6.9-6.6,1.7-12.2
		C71.7,9.6,67.5,11.2,67.5,11.2z" />
            <path id="XMLID_2944_" fill="#F8E4D5" d="M76.1,20.9c0,0,5.6-5,14.6-3.5s10.2,12.8,1,16.1s-17.4-4.6-16.9-8.6
		C75.2,21,76.1,20.9,76.1,20.9z" />
            <path id="XMLID_2943_" fill="#FFFFFF" d="M67.9,10.8c0,0,0.3-0.3,0-0.9s0.9-0.4,0.9-0.4l-0.6-1.7l2.4,0.2l-1.9-2.6
		c0,0,2.7,3.3,6.9,0.4c2.7-1.9,17.3-2.4,22.8,6.9c2.1,1.8,5.2,1.5,5.2,1.5L98,15.8h4.8l-3.6,2.9l1.9,1.3l-1.8,0.5l2.4,2.9l-2.4,0.1
		c-1.4,0.1-3.8-1.3-4.4-2.7c-0.6-1.4-2.5-3.1-5.8-3c-4.2,0.2-12.6,4.4-13.6,1.9c-0.5-1.3,0,0-1.6-1.4c-1.3-1.1,1.4-3.3-1.6-7.3
		C71.1,9.6,67.9,10.8,67.9,10.8z" />
            <path id="XMLID_2942_" fill="#D22D2A" d="M73.8,19.6c0.4-0.4,1.8-2.4,2.4-3c3.4-3.6,7.7-8.9,8.6-11.8c1.9,0.1,3.9,1.1,5.9,1.8
		c1.7,0.6,5.7,2.4,7.1,4.9C97,11.3,94.8,11,93.8,11c-4.2,0-11.7,2.6-15.7,6.5c-1.5,1.5-2.3,3.6-2.6,4.2L73.8,19.6z" />
            <g id="XMLID_2939_">
                <path id="XMLID_2941_" fill="#FFD028" d="M73.3,20.7c2.8-2.8,10.9-12.4,12-15.9l-2.9-0.1c-1,3.5-5.1,10.7-8,13.6l-0.4,0.9
			L73.3,20.7z" />
                <path id="XMLID_2940_" fill="#FFD028" d="M92.6,9.6C87.2,10,78.1,16,74.7,21.4l0.3,1.2c2.7-5.7,13-9.9,17.8-9.9
			c1.2,0,6.1,0.8,7,1.1c-0.2-0.3-3.4-3.8-3.4-3.8S93.9,9.5,92.6,9.6z" />
            </g>
            <g id="XMLID_2936_">
                <path id="XMLID_2938_" fill="#393332" d="M85.8,18.8c-1.6-0.1-4.6,0.4-8.7,1.9c0.4-0.1-3.9,2.7,1.5,7.4c3.6,3.2,4.8,3.9,7.5,3.4
			c1-0.2,2.1-0.8,2.8-1.6c1.7-2,3.5-5.4,1.6-8.6C89.2,19.5,88,18.9,85.8,18.8z" />
                <path id="XMLID_2937_" fill="#393332" d="M94,20c-0.5-0.7-1.3-1.5-2-1.7c-0.4-0.2-2.9,0.1-2.9,0.1c5.6,2.1,5.9,6.7,0.1,13.5
			c1-0.5,1.3,0.2,2-0.4C94.2,29,96.6,23.4,94,20z" />
            </g>
            <path id="XMLID_2935_" fill="#FFFFFF" d="M64.9,22.4c0,0-3,17.5,15,14.8c5.9-3.3-6.5-11.5-6.5-11.5L64.9,22.4z" />
            <path id="XMLID_2934_" fill="#D22D2A" d="M81.6,34.2c-0.8-1.1-1.8-2.2-2.8-3.2c-2-1.4-4.7-3.2-7.1-4.8l-5.5-2.1
		c-0.3,3.1-0.1,10.2,7.8,10.8C79.3,35.3,81.1,34.8,81.6,34.2z" />
            <path id="XMLID_2933_" fill="#393332" d="M72.1,11c0,0-6-1.2-6.6,6.8c-0.2-0.2-0.3-0.7-0.3-1.4c0-1.6,1.6-5.4,4.9-5.9
		C70.1,10.8,71.3,9.9,72.1,11z" />
            <path id="XMLID_2932_" fill="#F3F5F5" d="M65.7,13.8c0,0-8.8,3.3-3.9,9.7c3.5,4.7,7.9,3.7,11.8,10.4c1.3,2.2,5.3,7.8,17.9,6.6
		c12.5-1.1,13.1-12,7-11C91,30.5,85,37,75.1,23.9c-3.4-3-5.8-1.9-6.7-2.9c-1.5-1.7-2-1.4-2.6-2.8s-0.5-2.6-0.5-2.6L65.7,13.8z" />
            <path id="XMLID_2929_" fill="#D22D2A" d="M84.4,25.6c0,0,0-0.1,0.1-0.2c0,0,0,0,0-0.1c0,0,0,0,0-0.1c0,0,0-0.1,0-0.1
		c0,0,0-0.1,0-0.1c0,0,0-0.1,0-0.1c0.1-0.2,0.1-0.5,0.2-0.8c0-0.3,0-0.6-0.1-1c-0.1-0.4-0.3-0.7-0.6-1.1c0,0-0.1-0.1-0.1-0.1
		L83.9,22l0,0c0,0,0,0,0,0l0,0l0,0l0,0c-0.1-0.1-0.3-0.2-0.3-0.2c0,0-0.1-0.1-0.1-0.1c-0.1,0-0.1-0.1-0.2-0.1c-0.1,0-0.1,0-0.2-0.1
		c-0.1,0-0.1,0-0.2-0.1c-0.3-0.1-0.5-0.1-0.8-0.1l-0.2,0c-0.1,0-0.1,0-0.2,0l-0.1,0l-0.1,0c-0.1,0-0.1,0-0.2,0.1
		c-0.3,0.1-0.5,0.3-0.8,0.5c-0.2,0.2-0.4,0.4-0.6,0.7c0,0,0,0,0,0l0,0l0,0l0,0l0,0.1l-0.1,0.1c0,0,0,0.1-0.1,0.1l0,0.1
		c0,0.1-0.1,0.1-0.1,0.2l-0.1,0.2c-0.1,0.3-0.1,0.6-0.1,0.9c0,0.1,0,0.1,0,0.2l0,0.1l0,0.1c0,0.1,0,0.1,0.1,0.2l0.1,0.2
		c0.1,0.3,0.2,0.5,0.4,0.7c0.2,0.2,0.4,0.4,0.6,0.5c0.1,0.1,0.2,0.1,0.3,0.2l0,0l0,0l0,0c0,0-0.1,0,0,0l0.1,0l0.1,0l0.1,0
		c0,0,0.1,0,0.1,0c0.1,0,0.2,0.1,0.3,0.1c0.1,0,0.1,0,0.2,0c0.1,0,0.1,0,0.2,0c0.1,0,0.2,0,0.3,0c0.1,0,0.2,0,0.3,0
		c0.4-0.1,0.7-0.2,1-0.3c0.3-0.1,0.5-0.3,0.6-0.5c0,0,0.1-0.1,0.1-0.1c0,0,0.1-0.1,0.1-0.1c0,0,0.1-0.1,0.1-0.1
		C84.3,25.8,84.3,25.7,84.4,25.6C84.4,25.6,84.4,25.6,84.4,25.6L84.4,25.6z M86.4,26.8c0,0-0.1,0.1-0.2,0.3c0,0-0.1,0.1-0.1,0.1
		c0,0.1-0.1,0.1-0.1,0.2c-0.1,0.1-0.1,0.1-0.2,0.2c-0.1,0.1-0.1,0.1-0.2,0.2c0,0-0.1,0.1-0.1,0.1c0,0-0.1,0.1-0.1,0.1
		c-0.1,0.1-0.2,0.1-0.3,0.2c-0.1,0.1-0.2,0.1-0.3,0.2c-0.1,0.1-0.2,0.1-0.4,0.2c-0.5,0.2-1.1,0.4-1.8,0.4c-0.2,0-0.3,0-0.5,0
		c-0.2,0-0.4-0.1-0.5-0.1c-0.1,0-0.2,0-0.3-0.1c-0.1,0-0.2-0.1-0.3-0.1c-0.2-0.1-0.4-0.2-0.5-0.3c-0.1,0-0.1,0-0.1-0.1l-0.1-0.1
		l-0.1-0.1l0,0c0,0,0,0,0,0l0,0l0,0l0,0c-0.1-0.1-0.3-0.2-0.4-0.4c-0.3-0.3-0.5-0.6-0.7-0.9c0-0.1-0.1-0.2-0.1-0.3
		c0-0.1-0.1-0.2-0.1-0.3c0,0,0-0.1-0.1-0.1l0-0.1c0-0.1-0.1-0.2-0.1-0.3c-0.1-0.4-0.1-0.8-0.1-1.2l0-0.3c0-0.1,0-0.2,0-0.3l0-0.1
		l0-0.1c0-0.1,0-0.2,0.1-0.3l0.1-0.3c0-0.1,0.1-0.2,0.1-0.3l0.1-0.1c0,0,0-0.1,0.1-0.1l0.1-0.3c0.2-0.3,0.5-0.6,0.8-0.9
		c0.1-0.1,0.2-0.1,0.2-0.2l0.1-0.1l0.1-0.1c0.1-0.1,0.2-0.1,0.3-0.2l0.3-0.1c0.4-0.2,0.7-0.3,1.1-0.4c0.1,0,0.2,0,0.3-0.1l0.1,0
		c0,0,0.1,0,0.1,0c0.1,0,0.2,0,0.3,0c0.1,0,0.2,0,0.3,0c0.1,0,0.2,0,0.3,0c0.1,0,0.2,0,0.3,0c0.1,0,0.2,0,0.3,0.1
		c0.1,0,0.2,0.1,0.3,0.1c0.2,0.1,0.3,0.1,0.5,0.2l0,0l0,0l0,0c0,0,0.1,0,0,0l0.1,0l0.1,0.1c0.1,0.1,0.2,0.1,0.2,0.2
		c0.6,0.4,1.1,1,1.4,1.6c0.3,0.6,0.4,1.2,0.5,1.8c0,0.1,0,0.3,0,0.4c0,0.1,0,0.3,0,0.4c0,0.1,0,0.2-0.1,0.3c0,0.1,0,0.1,0,0.2
		c0,0.1,0,0.1,0,0.1c0,0.1-0.1,0.2-0.1,0.3c0,0.1-0.1,0.2-0.1,0.3c0,0.1-0.1,0.2-0.1,0.2c0,0,0,0,0,0.1c0,0,0,0,0,0.1
		C86.5,26.7,86.4,26.7,86.4,26.8L86.4,26.8z" />
            <path id="XMLID_2928_" fill="#393332" d="M74.2,18.4c-0.5-3.2-1.2-5.3-1.7-6.3c-0.2-0.4-1-0.3-1.5-0.3c-1.7,0-4.9,1.4-4.5,5.1
		c-0.2,2.4,2.6,4.3,4.8,4.4C72.5,21.3,74.3,18.9,74.2,18.4z" />
            <path id="XMLID_2925_" fill="#D22D2A" d="M68.5,14.6c0,0,0.1,0,0.1-0.1c0,0,0.1,0,0.1-0.1c0,0,0.1-0.1,0.1-0.1
		c0.1-0.1,0.2-0.1,0.3-0.2c0.2-0.1,0.5-0.2,0.9-0.3c0.3-0.1,0.8-0.1,1.2-0.1c0.2,0,0.5,0.1,0.7,0.2c0.2,0.1,0.5,0.2,0.7,0.4
		c0.1,0,0.1,0.1,0.1,0.1l0.1,0.1l0,0l0,0l0,0l0,0l0,0c0,0,0.1,0.1,0.1,0.1c0,0,0,0.1,0.1,0.1l0.1,0.1l0.1,0.1c0,0,0,0.1,0,0.1
		c0,0.1,0.1,0.1,0.1,0.2c0,0.1,0.1,0.3,0.1,0.4c0,0.3,0,0.6,0,0.9c0,0.3-0.1,0.6-0.3,0.8c-0.1,0.1-0.1,0.3-0.2,0.4
		c0,0.1-0.1,0.1-0.1,0.2c0,0.1-0.1,0.1-0.1,0.2l-0.1,0.2l-0.1,0.2c0,0.1-0.1,0.1-0.2,0.1L72,18.9L71.9,19l-0.1,0.1l-0.1,0.1
		l-0.2,0.1l-0.2,0.1c-0.1,0-0.1,0.1-0.2,0.1c-0.1,0-0.1,0.1-0.2,0.1c-0.1,0-0.3,0.1-0.4,0.1c-0.3,0.1-0.6,0.1-0.8,0.1
		c-0.3,0-0.6,0-0.8-0.1c-0.3-0.1-0.5-0.2-0.7-0.4c-0.1,0-0.1-0.1-0.2-0.1c0-0.1-0.1-0.1-0.1-0.1l0,0l0,0l0,0c0,0,0,0,0,0l0,0
		l-0.1-0.1c0,0-0.1-0.1-0.1-0.2c0-0.1-0.1-0.1-0.1-0.2c0-0.1-0.1-0.1-0.1-0.2c-0.1-0.1-0.1-0.2-0.1-0.4c0-0.2-0.1-0.5-0.1-0.7
		c0-0.5,0.1-0.9,0.3-1.2c0.1-0.3,0.3-0.6,0.5-0.8c0.1-0.1,0.2-0.2,0.2-0.3c0.1-0.1,0.1-0.1,0.2-0.2C68.5,14.7,68.5,14.7,68.5,14.6
		L68.5,14.6z M69.1,15.4c0,0,0,0-0.1,0.1c0,0-0.1,0.1-0.1,0.1c-0.1,0.1-0.1,0.1-0.2,0.2c-0.1,0.1-0.3,0.3-0.4,0.6
		c-0.1,0.2-0.2,0.5-0.2,0.8c0,0.2,0,0.3,0,0.5c0,0.1,0,0.2,0.1,0.2c0,0,0,0.1,0,0.1c0,0,0,0.1,0,0.1c0,0,0,0.1,0.1,0.1l0,0.1l0,0
		c0,0,0,0,0,0l0,0l0,0l0,0l0.1,0.1c0,0,0.1,0.1,0.1,0.1c0.1,0.1,0.3,0.2,0.5,0.3c0.2,0.1,0.4,0.1,0.6,0.1c0.2,0,0.4,0,0.6-0.1
		c0.1,0,0.2-0.1,0.3-0.1l0.2-0.1c0.1,0,0.1,0,0.2-0.1l0.1-0.1l0.1-0.1l0.1,0l0.1-0.1l0.2-0.1c0,0,0,0,0,0l0,0l0,0l0,0l0,0l0.1-0.1
		c0,0,0.1-0.1,0.1-0.1l0.1-0.1l0.1-0.1c0,0,0.1-0.1,0.1-0.1l0.1-0.1c0.1-0.1,0.1-0.2,0.1-0.3c0.1-0.2,0.1-0.4,0.2-0.6
		c0-0.2,0-0.4,0-0.6c0-0.1,0-0.2-0.1-0.3c0,0,0-0.1-0.1-0.1c0,0,0,0,0-0.1l0,0l0,0c0,0,0,0,0-0.1c0,0-0.1-0.1-0.1-0.1l0,0l0,0l0,0
		c0,0,0,0,0,0l0,0l0,0c0,0-0.1-0.1-0.1-0.1c-0.1-0.1-0.3-0.2-0.4-0.3c-0.2-0.1-0.3-0.1-0.5-0.1c-0.3,0-0.6,0-0.9,0.1
		c-0.3,0.1-0.5,0.2-0.6,0.3c-0.1,0-0.2,0.1-0.2,0.1c0,0-0.1,0-0.1,0.1c0,0-0.1,0-0.1,0.1C69.2,15.4,69.1,15.4,69.1,15.4L69.1,15.4z" />
            <path id="XMLID_2924_" fill="#33A165" d="M71.2,21c1.2-0.4,4.3-1.1,3.7,2.5c-0.1,0.6,0.4,1,1,0.9c0.4-0.1,0.9-0.3,1.3,0.3
		c0.8,1,0.5,2.7-0.6,3c-2.5,0.7-0.8-2.6-4.3-2.5c-1.7,0.1-2.4-0.7-2.4-1.7c0-0.9-1.5-1.8-0.9-2.8c0.6-1.1,1.5-1.2,1.7-0.4l0.1,0.3
		C70.7,20.9,70.9,21.1,71.2,21z" />
            <circle id="XMLID_2923_" fill="#D22D2A" cx="74.6" cy="25.8" r="1.1" />
            <ellipse id="XMLID_2922_" transform="matrix(0.9972 7.429235e-002 -7.429235e-002 0.9972 1.8002 -5.0825)" fill="#D22D2A" cx="69.2" cy="21.7" rx="0.7" ry="0.8" />
            <path id="XMLID_2921_" fill="#D2AA85" d="M77.3,52.8c0.8,3.2,2.4,6.4,5.5,8.8c0.5-1.1,0.2-3.4-1-5.4C80.3,53.8,78.4,52.3,77.3,52.8
		z" />
            <g id="XMLID_2920_">
                <path id="XMLID_2989_" fill="#FFD028" d="M128.8,27.5l1.7,2.4l0.6,10.6l-1.4,6.1l-4.8-2.4l3.5-1.2l-0.9-4.3l-2,2.2l-0.6-5
			l-0.9,2.2l-0.9-0.7l-1.8,4.7l-3.1-1.2l-1,2.3l4.4,0.7l1.5-3.5l1.6,4.4l-9.3,1.7l-0.9-9.3l-1.6-1.2l6.1-8.7l2.2,3.1l2.4,2.4
			l1.3,0.9l0.2-1.8l1.1-0.9l1.7,6L128.8,27.5z M117.6,35l3.4-0.5l-1.7-2.2l-3,2.7H117.6z M117.6,39.7l2.3-0.4l-0.2-2.8l-2.7,1.5
			L117.6,39.7z" />
                <path id="XMLID_2993_" fill="#FFD028" d="M148.4,38l3.9,0.8l-3.1,2.5l-1.6,5.4l-3.3-1.3l-7.3,0.6l-1.3-4.7l-2.9-0.2l6.4-3.7
			l-2-0.6l-3.8,1.1l5.5-5.2l-2.4-0.4l-0.6,1.6l-1.7,1.3l-1.6-5.4l8,0.2l-1.9-2.4l6.7,0.8l-1.3,1.7l7.6-0.6l-1.1,4.7l-2.5-2.4
			l-8.1,0.2l2.1,1.7l5.4-0.9l3.3,2.9l-5.9,1.7L148.4,38z M138.9,40.4l7.3-0.2l-3.9-1.6l-4.6,1.6L138.9,40.4z M138.9,43.7h6.8l-0.6-2
			l-5.7,0.6L138.9,43.7z M145.3,34.9l-5.5,0.4l2.4,1.3L145.3,34.9z" />
                <path id="XMLID_2998_" fill="#FFD028" d="M157.5,42.8l-3.6,4.1l1.2-5.2l-2-1.2l1.6-11.4l4.4,0.2l3.2-1.2l0.1,8.7l2.9-1.3l-0.8-6.5
			l2.1-1.5l1.2,2.9l3.5-0.6l-0.3,2.8l-2.7,1.3l-0.5,2.3l4.3-0.4l-1.8,11l-2.8-2.2l-3.4,1.2l-1.3-7.2l-1.1,2.8l-1.6,0.8l2.4,1.6
			l-2.7,2.8L157.5,42.8z M160.2,32.2l-4.1-0.9l0.1,9.6l1.2-8.2l2.2,1.5L160.2,32.2z M159.7,41l0.2-4.4l-1.8,3.1L159.7,41z
			 M168.9,38.8l-3.5,0.3l0.2,3.2l3.3-0.2L168.9,38.8z" />
            </g>
            <path id="XMLID_2919_" fill="#D8D7D7" d="M27.5,26.6c0,0,1.2-0.3,0.8,0.9C28,28.6,1,64.6,1,64.6l-1-0.9L27.5,26.6z" />
            <path id="XMLID_2918_" fill="#BC3722" d="M21.1,20.7c0,0-2.9,3.5-4.5,3.3s-4.1,4.9-5.7,5.1c0,0,1.7,4.1,1.7,5.8
		c0,0.8,3-8.1,5.4-8.2c2.3-0.1,1.2-3,2.4-3.5s4.2-2.4,3.9-3.4C24.1,19.3,21.1,20.7,21.1,20.7z" />
            <circle id="XMLID_2917_" fill="#E03F26" cx="32.6" cy="18.9" r="11.4" />
            <path id="XMLID_2916_" fill="#FB8916" d="M27.3,8.7c-2.3,1.2-4.2,3.2-5.2,5.6c1.4,8.3,7.6,12.9,13.5,15.5c4.7-1.3,8.2-5.4,8.4-10.5
		c0.1-1.3-0.1-2.5-0.4-3.7C32.8,15.9,28.7,12.3,27.3,8.7z" />
            <path id="XMLID_2915_" fill="#FBB016" d="M29.1,29.7c2.5,0.8,5.2,0.7,7.6-0.3c4.9-6.9,3.8-14.6,1.5-20.5C34,6.6,28.6,7,24.9,10.5
		c-0.9,0.9-1.7,1.8-2.3,2.9C30.3,20.8,30.6,26.2,29.1,29.7z" />
            <path id="XMLID_2914_" fill="#FBDB16" d="M43.9,17.4c-0.3-2.6-1.6-5-3.5-6.8c-8.3-1.5-14.8,2.7-19.2,7.3c-0.4,4.8,2.3,9.6,7,11.5
		c1.2,0.5,2.4,0.8,3.6,0.8C35.3,20.1,40.1,17.5,43.9,17.4z" />
            <circle id="XMLID_2913_" fill="#FFD028" cx="32.6" cy="18.9" r="11.4" />
            <path id="XMLID_2912_" fill="#BC3722" d="M43.6,20.6c0,0-3.5-0.8-1.6,4.1c2,4.9-2.2,6.5-2.1,8c0.1,1.5,3.2,3.5,2.6,5.7
		c-0.6,2.2,1,7,1.9,7.4S44,43,47.4,39c-0.2,0-1.9-0.3-2.1-3.8s0.8-5.3-0.8-7.9s-2.6-2.6-1.7-4.1S46.7,25.2,43.6,20.6z" />
            <g id="XMLID_2901_">
                <polygon id="XMLID_2911_" fill="#E03F26" points="29,25 29.7,27.6 37.1,27.8 37.6,23.6 32.4,26.7 		" />
                <path id="XMLID_2908_" fill="#E03F26" d="M38.4,20.7c-0.3-0.6-0.6-0.1-1.1-0.6c-0.5-0.6,0.9-1.4-0.2-2.7c-0.7-0.9-2.9-0.6-5.2,0.4
			c-2.3,1-4.7,3.9-3.3,6.1c0.9,1.4,3.9,1.8,6.2,0.7C37.2,23.6,39,21.6,38.4,20.7z M36.2,22.1c-0.4,0-0.7-0.3-0.7-0.8
			c0-0.4,0.3-0.7,0.8-0.7c0.4,0,0.7,0.3,0.7,0.8C37,21.8,36.6,22.1,36.2,22.1z" />
                <path id="XMLID_2907_" fill="#E03F26" d="M31.9,17.8c-1.9,0.8-3.8,2.9-3.7,4.9l8.6-5.5C35.9,16.6,33.9,16.9,31.9,17.8z" />
                <polygon id="XMLID_2906_" fill="#E03F26" points="25.8,13.3 28.6,18.5 25.7,19.7 26.4,21.7 38.7,16.3 37.9,14.6 36.1,15.5 33.7,9 
					" />
            </g>
            <g id="XMLID_2887_">
                <path id="XMLID_2893_" fill="#FFFFFF" d="M93.2,6.1c-1,0.9-2.8,1-4,0.4C88,5.9,87.8,4.7,88.7,4c0.9-0.7,2.7-0.9,4-0.4
			C94,4.2,94.2,5.3,93.2,6.1z" />
                <path id="XMLID_2892_" fill="#FFFFFF" d="M88.1,6.5c-0.9,0.8-2.6,0.8-3.8,0S83,4.6,83.8,4s2.5-0.6,3.8,0S89.1,5.7,88.1,6.5z" />
                <path id="XMLID_2891_" fill="#FFFFFF" d="M87.6,9.7c-1,0.8-2.7,0.8-3.8,0c-1.1-0.9-1.2-2.1-0.3-2.8s2.6-0.7,3.8,0
			C88.4,7.6,88.6,8.9,87.6,9.7z" />
                <path id="XMLID_2890_" fill="#FFFFFF" d="M91.9,11.5c-1.1,1-2.8,1.1-3.9,0.3c-1.1-0.8-1.2-2.2-0.2-3c1-0.8,2.7-0.9,3.9-0.3
			C92.9,9.2,93,10.6,91.9,11.5z" />
                <path id="XMLID_2889_" fill="#FFFFFF" d="M95,8.8c-1,0.9-2.8,1.1-3.9,0.5c-1.1-0.7-1.3-1.9-0.3-2.7c0.9-0.8,2.7-1,3.9-0.5
			S96.1,7.8,95,8.8z" />
                <path id="XMLID_2888_" fill="#D22D2A" d="M91.4,8.3c-1,0.9-2.8,1-3.9,0.2s-1.3-2-0.4-2.7s2.7-0.8,3.9-0.2S92.4,7.5,91.4,8.3z" />
            </g>
            <g id="XMLID_1141_">
                <g id="XMLID_2879_">
                    <path id="XMLID_2886_" fill="#AA5402" d="M16.3,45.7c0,0,4.6-0.3,5.4,5.4s0.2,3.4,1.5,5.9c1.2,2.6,1.9,2.8,0.1,6.5
				c-1.7,3.7-7.6,1.9-7.6,1.9s-4.1-2.3-3.7-10.7c-0.6-0.2-6.8-1.9-3-9.4C9.2,45,16.3,45.7,16.3,45.7z" />
                    <g id="XMLID_2884_">
                        <path id="XMLID_2885_" fill="#AA5402" d="M19.7,68.1l-1.5-2.3l-2.5-3.3c-0.3-0.9,2.7-2.5,3.6-2.7c0.9-0.3,3.9,0.8,4.7,1
					c0.7,0.2-0.5,3.5-0.5,3.5c-0.1,0.5,0.2,2.5,0.7,2.4c1.1-0.2,4.4-0.5,5.9-0.5c0.5,0,2,1.9-0.4,2.6c-1.3,0.4-4.3,0.9-6.1,1.3
					C22.1,70.3,20.2,69.5,19.7,68.1z" />
                    </g>
                    <g id="XMLID_2882_">
                        <path id="XMLID_2883_" fill="#AA5402" d="M8.3,72.1c-0.6,0-1.1-0.9-1.1-1.8c0-0.7-0.3-3.1,0.6-5.9c0.7-2.4,8-3.4,8.6-3.1
					c0.9,0.4,1.3,1.4,1,2.3c-0.4,0.9-0.7,1.8-1.6,1.9c-1.3,0.1-4.8,0.8-5.1,1.1c0,0-0.6,2.1-0.7,3.9C9.9,71.9,8.9,72.1,8.3,72.1z" />
                    </g>
                    <path id="XMLID_2880_" fill="#D2AA85" d="M12,55.7c0.2,5.1,2.3,7.4,3.3,8.2c0.5-1.2,0.6-2.8,0.1-4.4C14.7,57.6,13.4,56.1,12,55.7
				z" />
                </g>
                <path id="XMLID_2878_" fill="#F9CBB4" d="M10,35.3c0,0-0.5-1-1.1,0.7S8,39.4,9.1,39.6S10,35.3,10,35.3z" />
                <path id="XMLID_2877_" fill="#AA5402" d="M22.1,33.2c0,0-1.6,0.9-1.5,1.9c0.2,1.1,1.1,0.4,1.5-0.3S23.2,32.9,22.1,33.2z" />
                <path id="XMLID_2876_" fill="#AA5402" d="M23.4,34.6c0,0,1.5,3.5-1.8,7c-1.6,1.6-1.7-2.7-0.9-3.9C21.6,36.5,23.4,34.6,23.4,34.6z" />
                <path id="XMLID_2875_" fill="#A74100" d="M11.7,47.9c0,0-0.7,0.5,1,1.2c0.8-0.6,1.7-0.6,2.1-0.6c0.5,0,1-0.3,1-0.3
			S12.8,48.4,11.7,47.9z" />
                <path id="XMLID_2874_" fill="#AA5402" d="M10.3,34.9c-0.9,1.2-4.6,8.8-0.7,11.8s8,0.6,9.2-0.3c1.2-0.9,5.4-5.6,3.1-10.8
			C20,31.2,13.8,30.5,10.3,34.9z" />
                <path id="XMLID_2873_" fill="#F9CBB4" d="M14.1,36.9c0,0.1-2.1,1.5-1.1,2.4c0.2,0.2,0.9-1,0.9-1.6c0-0.3,0.6-0.5,0.4,0.1
			c-0.1,0.6-0.3,1.3,0.2,1.9c0.2,0.1,0.3-0.4,0.5-1.5c0.2-1.1,1.5-3.2,3.3-2.1c2.9,1.6,2.7,6.1-1.7,6.5c0.4,0,2.3-0.3,1.2,2.4
			c-0.4,0.5-3.5,4.4-7.5,1.4C7.3,44,8.6,40,9.1,39.5c0.3-0.3,0.4,0.1,0.4,0.1s0.1-3.8,3.4-4.9c0.2-0.1,0.5,0.2,0.5,0.2l0.3,0.2
			c0,0-0.9,0.4-1,0.6c0.3,0,0.9,0.1,1,0.2c0,0.1-1.8,0.3-1.3,1.2C12.7,37.5,14.1,36.9,14.1,36.9z" />
                <path id="XMLID_2872_" fill="#A43A3B" d="M10.5,41.9c0.4-0.1-0.3,1.2,1.3,2s2.9,0.1,3.8,0.6c0.8,0.5-2.4,3.5-5.3,1.3
			C9.3,44.9,9,42.4,10.5,41.9z" />
                <path id="XMLID_2591_" fill="#F9CBB4" d="M19.2,45.7c2.4,1.9,5.4-2.6,4.7-3.7c-0.4-0.6-1.1-0.7-1.7-0.6c-0.8,0-1.4,0.5-1.6,1.2
			c-0.1,0.3-0.1,0.6,0.1,0.8c-0.2,0.2-0.2,0.1-0.4,0.2c-0.2,0.1-0.9,0.3-1.1,1.2C19.1,45.1,19.2,45.7,19.2,45.7z" />
                <path id="XMLID_2590_" opacity="0.5" fill="#AA5413" d="M21.4,42.5c0.2-0.2,0.9-0.5,1.4,0.1c0.5,0.6-0.5,2.1-1.6,2.8
			c-1.1,0.7-1.6,0.3-1.5-0.5s0.4-0.9,0.9-0.9c0.5,0,0.6-0.3,0.5-0.7C20.9,42.8,21.4,42.5,21.4,42.5z" />
                <path id="XMLID_2580_" fill="none" stroke="#AA5402" stroke-width="1.4294" stroke-linecap="round" stroke-miterlimit="10" d="
			M30.8,48.6c0,0-6.6-1.2-4.9,6c0.4,1.9-0.6,4.1-4.2,4.9" />
                <ellipse id="XMLID_2576_" transform="matrix(0.8643 0.503 -0.503 0.8643 22.7585 -3.0181)" fill="#222222" cx="17" cy="40.7" rx="0.8" ry="1.3" />
                <ellipse id="XMLID_2575_" transform="matrix(0.8643 0.503 -0.503 0.8643 22.8084 -3.1111)" fill="#FFFFFF" cx="17.2" cy="40.7" rx="0.2" ry="0.3" />
                <ellipse id="XMLID_2545_" transform="matrix(0.9201 0.3917 -0.3917 0.9201 15.9794 -1.4015)" fill="#222222" cx="11.4" cy="38.5" rx="0.6" ry="1.2" />
                <ellipse id="XMLID_2544_" transform="matrix(0.9201 0.3917 -0.3917 0.9201 15.9926 -1.4601)" fill="#FFFFFF" cx="11.6" cy="38.5" rx="0.1" ry="0.3" />
                <path id="XMLID_2532_" fill="#F47273" d="M15.5,44.4c-0.8-0.5-2.1,0.2-3.8-0.6c-0.5-0.2-0.8-0.5-0.9-0.8c-0.5,0.3-1,0.6-1.3,1
			c0.1,0.7,0.4,1.3,0.8,1.6C13.1,47.9,16.3,44.9,15.5,44.4z" />
                <ellipse id="XMLID_2263_" transform="matrix(0.8901 0.4557 -0.4557 0.8901 20.1779 -1.5941)" fill="#AA5402" cx="13.4" cy="41.1" rx="0.9" ry="0.5" />
                <path id="XMLID_2153_" fill="#222222" d="M17.3,38.9c0,0,1.6-0.4,2.2,0.1c0.3-0.5,0.3-0.5,0.3-0.5S17.9,38.3,17.3,38.9z" />
                <path id="XMLID_1143_" fill="#222222" d="M12.3,37.3c0,0-0.3-1-1-0.9c0.2-0.5,0.2-0.5,0.2-0.5S12.3,36.5,12.3,37.3z" />
            </g>
            <ellipse id="XMLID_1107_" transform="matrix(0.9822 0.1879 -0.1879 0.9822 4.9188 -7.5832)" fill="#FFD028" cx="42.5" cy="22.2" rx="0.4" ry="0.6" />
        </g>
    </svg>

    <!-- footer 小二维码 -->
    <svg x="0" y="200px" viewBox="0 0 38.2 34.2" width="38.2" height="34.2">
        <g id="XMLID_1368_" opacity="0.8">
            <path id="XMLID_8620_" fill="#FFFFFF" d="M6.3,19.5h13.7V5.7H6.3V19.5z M9.1,8.5h8.1v8.1H9.1V8.5z" />
            <path id="XMLID_8623_" fill="#FFFFFF" d="M0,0v34.2h38.2V0H0z M3.2,2.6h20v20h-20V2.6z M6.1,28.4H3.2v-3h2.9V28.4z M12.1,31.4H9
            v-6.3h3V31.4z M17.7,31.4h-3v-3.1v-3.1h3h5.5v3.1h-5.5V31.4z M29,31.4h-3h-2.9v-3H26v-3.3h3V31.4z M34.8,28.3H32v-8.8h-3v3h-2.9v-3
            h2.9v-5.3h-2.9v-3h2.9h2.9H32v5.5h2.9V28.3z M34.8,5.6v3.3h-3V5.6h-5.7v-3h5.7h3V5.6z" />
        </g>
    </svg>

    <!-- footer logo -->
    <svg x="0" y="330" viewBox="0 0 153.5 83.2" width="153.5" height="83.2">
        <g>
            <g id="XMLID_8699_" opacity="0.5">
                <polygon id="XMLID_8704_" fill="#FFFFFF" points="10.5,47.8 12.6,55.7 34.6,55.7 35.8,43.4 20.7,52.7      " />
                <g id="XMLID_8700_">
                    <path id="XMLID_8701_" fill="#FFFFFF" d="M9.1,35.3l23.5-11.1L7.9,40.9c0.1,1.3,0.5,2.6,1.3,3.8c2.6,4.1,11.6,5.1,18.5,1.8
                    c6.9-3.3,12.2-9.3,10.5-11.9c-1.1-1.7-1.8-0.2-3.2-1.8c-1.5-1.6,2.5-4.1-0.8-8c-0.3-0.3-0.6-0.6-1-0.8l5.5-2.6l-2.5-5.1l-5.4,2.8
                    L23.1,0L0,13.3l8.6,15.3l-8.6,3.9l2.5,5.9L9.1,35.3C9.1,35.3,9.1,35.3,9.1,35.3 M31.6,38.8c-1.2,0-2.2-1-2.2-2.2s1-2.2,2.2-2.2
                    c1.2,0,2.2,1,2.2,2.2S32.8,38.8,31.6,38.8z" />
                </g>
            </g>
            <g id="XMLID_8677_" opacity="0.5">
                <g id="XMLID_8678_">
                    <g id="XMLID_8693_">
                        <path id="XMLID_8694_" fill="#FFFFFF" d="M50,39.3c-1.9,0-2.7-0.7-2.7-2.3V21.3h19.3v10.4c0,2-0.6,2.7-2.7,2.7H57v-2.7h2
                        c1.3,0,1.4-0.3,1.4-1.4v-6.5h-7.3v11.8c0,1,0.3,1.4,1.3,1.4h12.1v2.3H50z M60.1,17.5h-6.3l-0.3,1.9h-6.3l1-6h17l1.3,6h-6.1
                        L60.1,17.5z M68.8,38.3V13.5h2.7v24.8H68.8z M73.9,39.3V13.5h6.1V37c0,1.7-0.7,2.3-2.7,2.3H73.9z" />
                    </g>
                    <g id="XMLID_8691_">
                        <polygon id="XMLID_8692_" fill="#FFFFFF" points="116.6,18.1 109.1,18.1 109.1,17.1 91.2,17.1 91.2,18.1 83.7,18.1 83.7,14.5 
                        96.4,14.5 96.2,13.5 103.6,13.5 103.9,14.5 116.6,14.5                " />
                    </g>
                    <g id="XMLID_8689_">
                        <path id="XMLID_8690_" fill="#FFFFFF" d="M83.7,27.7l5.3-0.9l-5.3-0.8v-3.1l14.8,2.3l10.6-1.8c0.4-0.1,0.5-0.5,0.4-0.7
                        c0-0.1-0.1-0.2-0.4-0.2H86.5c-1.9,0-2.9-0.7-2.9-2v-1.1h8.7c0,0.8,0.2,1,1.1,0.9h23.1v3.3c0,1.2-0.7,2.1-2.6,2.4l-4.9,0.8
                        l7.4,1.2v3.1l-17-2.7l-16,2.7V27.7z" />
                    </g>
                    <g id="XMLID_8685_">
                        <path id="XMLID_8686_" fill="#FFFFFF" d="M116.6,31.5V37c0,1.6-0.8,2.3-2.9,2.3H83.7v-7.8H116.6z M109.5,35.6v-1.5H90.8V37h17.3
                        C109.4,37,109.5,36.7,109.5,35.6z" />
                    </g>
                    <g id="XMLID_8679_">
                        <path id="XMLID_8680_" fill="#FFFFFF" d="M124.9,39.3h-4.6l0.9-6.2h-0.9V13.5h12.3v17c0,1.9-0.7,2.6-2.7,2.6h-2.1v-17h-2.7v16.3
                        h1L124.9,39.3z M131.6,35.1l1,4.2h-4.7l-1-4.2H131.6z M153.2,21.4V37c0,1.6-0.8,2.3-2.7,2.3h-15.8V21.4h1.3v-7.9h6.9v1.4h10.4
                        v2.6h-10.4v3.9H153.2z M146.8,35.6V24h-6v13h4.6C146.6,36.9,146.8,36.7,146.8,35.6z" />
                    </g>
                </g>
            </g>
            <g id="XMLID_1243_" opacity="0.5">
                <path id="XMLID_8675_" fill="#FFFFFF" d="M53.9,47.5l-1.7,0.6c-0.3-1.3-0.9-2-1.9-2c-1.4,0.1-2.1,1.4-2.1,3.7
                c0,2.4,0.7,3.6,2.1,3.7c1.1,0,1.7-0.8,2-2.4l1.7,0.5c-0.5,2.4-1.8,3.5-3.7,3.5c-2.5-0.1-3.8-1.8-3.8-5.2c0.1-3.3,1.4-5.1,3.9-5.3
                C52.3,44.5,53.4,45.5,53.9,47.5z" />
                <path id="XMLID_8673_" fill="#FFFFFF" d="M60.8,44.7h1.7v10.1h-1.7v-4.4h-3.9v4.4h-1.7V44.7h1.7v4.1h3.9V44.7z" />
                <path id="XMLID_8671_" fill="#FFFFFF" d="M70.6,44.7h1.7v5.8c0,3-1.4,4.5-4.1,4.5c-2.7,0.1-4-1.4-4-4.4v-5.8h1.7v5.8
                c0,2,0.7,3,2.2,3c1.7,0.1,2.5-0.9,2.4-3V44.7z" />
                <path id="XMLID_8662_" fill="#FFFFFF" d="M80.1,54.8l-0.8-2.4h-3.6l-0.8,2.4h-1.7l3.6-10.1h1.5l3.6,10.1H80.1z M76.3,50.7h2.5
                L77.5,47L76.3,50.7z" />
                <path id="XMLID_8656_" fill="#FFFFFF" d="M89.2,51.8v-7.1H91v10.1h-1.7l-4.7-7.1v7.1h-1.7V44.7h1.8L89.2,51.8z" />
                <path id="XMLID_8654_" fill="#FFFFFF" d="M96.4,49.2h4.3v3.9c-0.8,1.2-2.1,1.9-4,1.9c-2.9-0.1-4.4-1.9-4.5-5.2
                c0.2-3.4,1.6-5.1,4.4-5.4c2,0,3.4,1,4,3.1l-1.7,0.6c-0.4-1.4-1.2-2.1-2.3-2.1c-1.8,0.2-2.7,1.4-2.7,3.7c0.1,2.3,1,3.6,2.8,3.7
                c0.9,0,1.7-0.3,2.2-0.9v-1.8h-2.6V49.2z" />
                <path id="XMLID_8651_" fill="#FFFFFF" d="M107.7,54.8l-2.8-4.6l-1,1.2v3.4h-1.7V44.7h1.7V49l3.6-4.3h2.1l-3.6,4.2l3.7,5.9H107.7z" />
                <path id="XMLID_8649_" fill="#FFFFFF" d="M110.6,44.7h1.7v10.1h-1.7V44.7z" />
                <path id="XMLID_7403_" fill="#FFFFFF" d="M120.5,46.3h-2.6v8.5h-1.8v-8.5h-2.7v-1.6h7V46.3z" />
                <path id="XMLID_2198_" fill="#FFFFFF" d="M121.5,52.7h2.2v2.1h-2.2V52.7z" />
                <path id="XMLID_1719_" fill="#FFFFFF" d="M132.1,47.5l-1.7,0.6c-0.3-1.3-0.9-2-1.9-2c-1.4,0.1-2.1,1.4-2.1,3.7
                c0,2.4,0.7,3.6,2.1,3.7c1.1,0,1.7-0.8,2-2.4l1.7,0.5c-0.5,2.4-1.8,3.5-3.7,3.5c-2.5-0.1-3.8-1.8-3.8-5.2c0.1-3.3,1.4-5.1,3.9-5.3
                C130.5,44.5,131.7,45.5,132.1,47.5z" />
                <path id="XMLID_1576_" fill="#FFFFFF" d="M137.5,44.5c2.8,0.2,4.3,2,4.4,5.3c-0.1,3.4-1.5,5.2-4.4,5.3c-2.8-0.2-4.3-1.9-4.4-5.2
                C133.2,46.4,134.7,44.6,137.5,44.5z M137.4,53.5c1.8-0.1,2.7-1.3,2.8-3.7c-0.1-2.3-1-3.6-2.7-3.7c-1.7,0.1-2.6,1.4-2.7,3.8
                C134.8,52.2,135.7,53.4,137.4,53.5z" />
                <path id="XMLID_1380_" fill="#FFFFFF" d="M151.2,44.7h2.1v10.1h-1.7v-5.9l0.1-1.5l-2.8,7.4h-1.3l-2.8-7.3l0.1,1.4v5.9h-1.7V44.7
                h2.1l2.9,7.6L151.2,44.7z" />
            </g>
            <g id="XMLID_1577_" opacity="0.5">
                <g>
                    <path fill="#FFFFFF" d="M86.8,73.1c-1.7,0.3-3.4,0.7-5.1,1.1c0.2-0.9,1.3-1.5,0.8-2.8c1.4,0,2.6-0.1,3.8-0.1
                    c0.5,0,0.9-0.3,0.7-0.7c-0.1-0.2-0.5-0.4-0.7-0.4c-1.4,0.2-2.8,0.4-4.2,0.6c-1.6,0.3-3,1.3-4.7,0.8c-0.3-0.1-0.5,0.3-0.2,0.5
                    c0.3,0.2,0.8,0.5,1.1,0.5c0.7-0.1,1.4-0.3,2.1-0.6c0.4-0.1,0.9-0.3,1.3-0.5c0,0,0.1,0.1,0.1,0.1c-0.1,0.3-0.1,0.8-0.3,1
                    c-0.8,0.9-1.5,1.9-2.8,2.3c-0.1,0-0.2,0.2-0.4,0.4c0.2,0.1,0.3,0.2,0.5,0.1c1.2-0.3,1.5,0.3,1.6,1.3c0,0.2,0,0.4,0.1,0.6
                    c0.1,0.4-0.1,0.9,0.5,1c0.5,0.1,0.5-0.5,0.7-0.7c0.3-0.2,0.7-0.3,1.1-0.4c0.1,0,0.3,0.3,0.3,0.3c-0.2,0.2-0.4,0.6-0.6,0.7
                    c-0.9,0.3-1.8,0.5-2.7,0.7c-0.8,0.1-0.9,0-1-0.8c-0.1-0.7-0.3-1.4-0.7-2c-0.4-0.6-1.2-0.6-1.5,0.1c1.1,0.2,1.2,1,1.4,1.8
                    c0.1,0.3,0.1,0.7,0.2,1c0.1,1,0.5,1.3,1.5,1c0.3-0.1,0.6-0.2,0.9-0.3c1.2-0.3,2.4-0.6,3.7-1c0.2-0.1,0.4-0.2,0.8-0.4
                    c0.4,0.5,0.8,1.2,1.3,1.8c0.2,0.2,0.5,0.4,0.7,0.4c0.2,0,0.4-0.4,0.4-0.7c0.1-0.4,0.1-0.7,0.2-1.1c0.4-1.5,0.8-2.9,1.2-4.4
                    C88.7,73.6,88,72.9,86.8,73.1z M83.1,75.4c-0.4,0.1-0.9,0-1.3,0.1c-0.3,0.1-0.5,0.3-0.8,0.5c0.3,0.1,0.6,0.2,0.9,0.2
                    c0.4,0,0.7,0,1.1,0c0,0.1,0,0.1,0,0.2c-0.6,0.2-1.2,0.4-1.9,0.6c-0.2-0.5-0.4-1-0.4-1.4c0-0.2,0.2-0.6,0.4-0.7
                    c0.6-0.2,1.3-0.3,1.9-0.4c0.1,0,0.4,0.3,0.4,0.3C83.4,75.1,83.2,75.4,83.1,75.4z M87,76.1c-0.3,1-0.5,2.1-0.8,3.1
                    c-0.1,0-0.1,0-0.2,0.1c-0.3-0.4-0.6-0.8-1-1.2c-0.2-0.3-0.5-0.6-1-0.1c0-0.2,0-0.4,0-0.6c0.1-0.9,0.2-1.8,0.3-2.7
                    c0-0.2,0.3-0.4,0.5-0.5c0.4-0.2,0.9-0.2,1.4-0.3c0.8-0.2,1.2,0.1,1.1,1C87.3,75.3,87.1,75.7,87,76.1z M56.5,73
                    c-0.8,0.1-1.6,0.3-2.5,0.5c-0.3,0.1-0.6,0.1-0.9,0.1c0-0.1,0-0.1-0.1-0.2c0.1-0.1,0.2-0.3,0.4-0.4c0.4-0.6,0.8-1.2,1.2-1.8
                    c0.1-0.1,0.1-0.5,0-0.5c-0.4-0.3-0.9-0.5-1.4-0.8c0,0.1-0.1,0.1-0.1,0.2c0.6,1,0.6,1.3-0.2,2.3c-0.3,0.4-0.6,0.8-1,1.1
                    c-0.2,0.2-0.6,0.4-0.9,0.4c-0.7-0.1-1.4-0.1-2.1,0.2c-0.2,0.1-0.4,0-0.5,0c0-0.2,0.1-0.4,0.1-0.6c0.2-0.5,0.4-1.1,0.5-1.6
                    c0-0.2,0-0.5-0.1-0.5c-0.5-0.3-1-0.5-1.7-0.3c0.2,0.2,0.2,0.3,0.4,0.4c0.5,0.3,0.6,0.7,0.3,1.2c-0.4,0.7-0.7,1.4-1.1,2
                    c-0.3,0.5-0.7,0.7-1.3,0.7c-0.2,0-0.4,0.2-0.6,0.3c0.1,0.1,0.3,0.3,0.4,0.4c0.9,0.2,1.2,0.8,1.3,1.6c0.1,0.8,0.2,1.5,0.3,2.3
                    c0.1,0.3,0.2,0.7,0.4,0.8c0.2,0.1,0.5-0.2,0.8-0.3c0.1-0.1,0.2-0.2,0.3-0.3c0.3-0.4,0.7-0.4,1,0c0.2,0.2,0.4,0.5,0.8,0.9
                    c0.2-0.5,0.4-0.8,0.4-1.1c0.1-1.4,0.2-2.8,0.3-4.3c0-0.6,0.3-0.8,0.9-0.8c0.3,0,0.7-0.1,1-0.2c0.7-0.3,1.4-0.6,2.1-0.9
                    c0.8-0.3,1.2,0,1.1,0.8c0,0.3-0.1,0.6-0.2,0.9c-0.1,0.6-0.3,1.1-0.4,1.7c-0.1,0.9-0.2,1.9-0.3,2.9c-0.1,0.5-0.4,0.7-0.7,0.4
                    c-0.5-0.6-1.1-1.2-1.4-1.9c-0.4-1.1-0.3-1.2,0.9-1c0.4,0.1,0.6-0.2,0.5-0.6c-0.1-0.4-0.9-0.8-1.6-0.7c-0.6,0.1-0.9,0.5-0.8,1.1
                    c0.2,1.8,1.1,3.3,2.6,4.4c0.4,0.3,0.8,0.2,1-0.2c0.2-0.4,0.4-0.9,0.4-1.3c0.1-2,0.4-4,1.1-5.9C57.7,73.5,57.4,72.9,56.5,73z
                     M50.1,78.4c0,0.1-0.1,0.1-0.2,0.3c-0.3-0.4-0.6-0.8-0.9-1.2c-0.1,0.1-0.1,0.1-0.2,0.2c0,0.4,0,0.8-0.1,1.1
                    c-0.2,0.5-0.6,0.6-0.8,0.1c-0.2-0.5-0.3-1.2-0.4-1.8c0,0,0.3-0.2,0.4-0.1c0.6,0,1.1,0.1,1.7,0.1c-0.1-0.8-0.3-1-0.9-0.9
                    c-0.2,0-0.5,0.1-0.7,0.1c-0.8,0.1-1,0-1.4-0.8c1-0.6,2-1,3.1-1.1c0.1,0,0.4,0.2,0.4,0.3C50.2,76,50.2,77.2,50.1,78.4z M72.6,75.6
                    c-0.5-0.1-1-0.2-1.5-0.3c-0.6-0.1-1.1-0.1-1.6,0.3c-0.3,0.2-0.7,0.2-1,0.3c0-0.1-0.1-0.1-0.1-0.2c0.1-0.1,0.1-0.3,0.2-0.4
                    c0.5-0.5,1.1-1,1.6-1.6c0.2-0.2,0.3-0.6,0.3-0.8c-0.1-0.7-0.5-0.7-1.2-0.4c-0.2,0.1-0.5,0.2-0.7,0.1c-0.1,0-0.2-0.4-0.2-0.6
                    c0-0.6,0.2-1.1,0.9-1.2c0.3,0,0.6-0.3,0.5-0.6c-0.1-0.2-0.4-0.4-0.6-0.5c-0.2-0.1-0.5,0-0.8,0c-0.9,0.1-1.7,0.3-2.5-0.2
                    c-0.1-0.1-0.4,0-0.5,0.1c-0.1,0.1-0.2,0.4-0.1,0.5c0.2,0.2,0.4,0.5,0.7,0.6c0.3,0.2,0.9,0.2,1.1,0.4c0.2,0.3,0.1,0.8,0.1,1.2
                    c0,0.2,0,0.3,0,0.5c0,0.1-0.1,0.3-0.2,0.4c-0.4,0.3-0.9,0.5-1.4,0.8c0-0.2-0.1-0.2-0.1-0.3c-0.1-0.3-0.1-0.8-0.5-0.8
                    c-0.2,0-0.4,0.5-0.6,0.7c-0.1,0.1-0.1,0.2-0.1,0.3c0.1,0.4,0.1,0.9,0.4,1.2c0.2,0.2,0.8,0,1.1-0.2c0.4-0.2,0.8-0.5,1.2-0.8
                    c0.2,0.6,0,1-0.4,1.3c-0.2,0.2-0.5,0.4-0.7,0.6c-1.2,1-2.4,1.8-3.9,2.2c-0.2,0.1-0.4,0.4-0.6,0.6c0.2,0.2,0.5,0.6,0.7,0.6
                    c0.3,0.1,0.8,0,1.1-0.1c1-0.5,1.9-1.2,2.9-1.7c0.3-0.2,0.6-0.2,0.9-0.3c0.1,0.3,0.2,0.6,0.3,0.8c0.1,0.9,0,1.8,0.1,2.6
                    c0,0.4,0.1,0.8,0.3,1.2c0.1,0.2,0.3,0.2,0.5,0.4c0.1-0.2,0.2-0.4,0.2-0.5c0-1.4,0-2.8-0.1-4.2c0-1,0.2-1.4,1.2-1.4
                    c0.9,0,1.8,0.2,2.7,0.3c0.3,0,0.6,0.2,0.7-0.2C73.1,76,72.9,75.7,72.6,75.6z M153.2,74.2c-0.5,0-1-0.1-1.5,0
                    c-0.8,0.2-1.5,0.5-2.2,0.8c-0.7,0.3-0.9,0.1-0.8-0.6c0.1-0.8,0.2-1.6,0.3-2.3c0.1-0.8,0.1-1.7,0.7-2.5c0.1-0.1,0.1-0.4,0-0.6
                    c-0.2-0.9-1-1.4-1.9-1.2c-1,0.2-2,0.6-2.9,1c-0.2,0.1-0.2,0.3-0.3,0.5c0.2,0.1,0.4,0.1,0.6,0.1c0.1,0,0.2-0.1,0.3-0.2
                    c0.6-0.2,1.1-0.5,1.7-0.7c0.9-0.2,1.4,0.3,1.2,1.2c-0.1,0.7-0.2,1.4-0.3,2.1c-0.1,0.6-0.2,1.2-0.3,1.7c-0.9,0.1-1.6,0.1-2.3,0.2
                    c-0.2,0-0.4,0.3-0.6-0.1c-0.1-0.3,0-0.5,0.4-0.6c0.5-0.1,1.1-0.1,1.6-0.2c0.2,0,0.3-0.1,0.5-0.2c-0.1-0.2-0.2-0.5-0.4-0.5
                    c-0.3-0.1-0.7-0.1-1,0c-0.8,0.1-1.1-0.1-1.2-0.9c0-0.2,0-0.4-0.1-0.5c-0.2-1-1.4-1.8-2.6-1.5c0.3,0.2,0.5,0.5,0.7,0.6
                    c0.7,0.3,1,0.9,1.1,1.7c0.1,1.3,0.2,2.6,0.3,3.9c0,0.5-0.2,0.8-0.6,1c-1.2,0.6-2.3,1.2-3.5,1.8c0.1,0.5,0.5,0.9,1,0.7
                    c0.7-0.2,1.3-0.4,1.9-0.7c0.9-0.4,1.7-0.8,2.6-1.2c1-0.4,2-0.8,3-1.2c0.3-0.1,0.6-0.2,0.8-0.2c1.2-0.2,2.4-0.4,3.6-0.6
                    c0.1,0,0.3-0.3,0.3-0.5C153.6,74.5,153.3,74.2,153.2,74.2z M145.2,74.9c0.3-0.2,0.6-0.2,0.9-0.3c0,0.1,0.1,0.1,0.1,0.2
                    c-0.2,0.2-0.4,0.5-0.6,0.6c-0.1,0.1-0.3,0-0.5,0C145.2,75.2,145.1,74.9,145.2,74.9z M147.4,75.9c-0.7,0.3-1.4,0.5-2.1,0.7
                    c0-0.1-0.1-0.2-0.1-0.3c0.6-0.4,1.3-0.8,1.9-1.2c0.1-0.1,0.4,0.2,0.5,0.3C147.6,75.5,147.5,75.8,147.4,75.9z M107.2,79.8
                    c-1.2-0.5-2.5-0.9-3.7-1.4c-0.7-0.3-0.8-0.5-0.6-1.2c0.1-0.3,0.1-0.5,0.1-0.8c0.1-0.4,0.3-0.9,0.4-1.3c0-0.2,0.1-0.4,0.1-0.5
                    c-0.5-0.6-0.1-0.9,0.3-1.3c0.4-0.4,0.8-0.8,0.8-1.5c-0.3,0-0.5,0-0.8,0c-0.2,0-0.4,0.2-0.5,0.2c-0.2,0-0.5,0-0.7,0
                    c0-0.2,0-0.4,0-0.7c0.1-0.4,0.1-0.7,0.3-1.1c0.2-0.4,0.4-0.9,0-1.2c-0.3-0.2-0.8-0.1-1.2,0c-0.3,0.1-0.6,0.3-0.9,0.4
                    c-0.2,0.1-0.5,0.2-0.7,0.3c-1,0.3-1,0.4-0.7,1.4c0.2,0.5,0.2,1,0.2,1.6c0,0.1-0.2,0.3-0.3,0.4c-0.7,0.2-0.9,0.6-0.8,1.3
                    c0.1,0.3,0.3,0.6,0.5,0.7c0.4,0.2,0.6-0.2,0.7-0.5c0.2-0.5,0.4-1.1,0.5-1.7c0.1-0.4,0.2-1.1-0.1-1.4c-0.6-0.7-0.3-1,0.4-1.2
                    c0.2-0.1,0.3-0.3,0.5-0.4c0.2-0.1,0.5-0.2,0.8-0.3c0.1,0,0.1,0.1,0.2,0.1c-0.1,0.5-0.3,1-0.4,1.5c-0.1,0.7-0.3,1.2,0.6,1.5
                    c0.4,0.1,0.5,0.4,0.2,0.7c-0.8,0.8-1.5,1.8-2.7,2.2c-0.5,0.2-0.9,0.5-1.5,0.9c0.4,0.2,0.7,0.4,1,0.6c0.5,0.2,1.1,0.4,1.6,0.6
                    c0.3,0.1,0.6,0.4,0.2,0.7c-0.8,0.7-1.4,1.8-2.7,1c0.3,0.9,0.8,1.2,1.6,0.8c0.5-0.3,1-0.6,1.5-1.1c0.6-0.5,1.1-0.4,1.6-0.1
                    c0.7,0.4,1.3,0.8,2,1.1c0.7,0.4,1.5,0.6,2.4,0.4c0.2,0,0.3-0.2,0.4-0.3c-0.1-0.1-0.2-0.2-0.4-0.3
                    C107.4,79.8,107.3,79.8,107.2,79.8z M101.8,77.3c-0.4-0.2-0.9-0.4-1.3-0.7c0-0.1,0-0.2,0-0.3c0.4-0.3,0.7-0.5,1.1-0.8
                    c0.3-0.2,0.7-0.1,0.6,0.4C102.1,76.4,101.9,76.8,101.8,77.3z M26.2,78.3c-0.8-0.1-0.9-0.4-0.8-1c0.3-1.4-0.2-2.3-1.6-2.6
                    c-0.4-0.1-0.5-0.3-0.4-0.6c0.2-0.5,0.4-0.9,0.5-1.4c0.1-0.4,0.1-0.9-0.1-1.1c-0.2-0.2-0.7-0.3-1.1-0.3c-0.3,0-0.6,0.3-0.9,0.4
                    c-0.6,0.3-1.2,0.6-1.8,0.9c-0.4,0.2-0.4,0.5-0.1,0.6c0.3,0.1,0.6,0.2,0.9,0.1c0.3-0.1,0.5-0.4,0.8-0.6c0.4-0.2,0.8-0.4,1.2-0.7
                    c-0.2,1-0.3,1.8-0.4,2.6c-0.1,0.9,0.2,1.2,1.1,1.2c0.7,0,1,0.3,1,0.9c0,0.8-0.3,1.1-1,1c-0.5,0-0.9-0.1-1.4-0.2
                    c-0.2,0-0.3,0.1-0.5,0.2c0.1,0.1,0.2,0.4,0.4,0.4c0.3,0.1,0.6,0.1,0.9,0.2c0.3,0.1,0.7,0.5,0.7,0.6c-0.2,0.4-0.4,0.8-0.7,1
                    c-0.2,0.1-0.7-0.2-1-0.4c-0.2-0.1-0.2-0.4-0.4-0.5c-0.4-0.2-0.4-0.5-0.3-0.9c0.3-1.1,0.6-2.3,0.8-3.4c0-0.2-0.2-0.5-0.3-0.7
                    c-0.2,0.2-0.4,0.4-0.5,0.6c-0.3,1.2-0.6,2.4-0.9,3.6c-0.1,0.5-0.3,0.9-0.4,1.4c-0.2-0.3-0.4-0.5-0.6-0.7C19,78.9,19,79,18.9,79
                    c0,0.6,0,1.3,0.1,1.9c0,0.2,0.3,0.4,0.5,0.6c0.2-0.2,0.5-0.3,0.6-0.5c0.2-0.4,0.3-0.8,0.4-1.2c0.1,0.1,0.2,0.2,0.3,0.3
                    c1.3,1.4,2.4,1.3,3.5-0.2c0.5-0.7,0.8-1,1.9-0.4c0.5,0.2,0.9,0.6,1.3,0.9c0.2,0.1,0.6,0,0.9,0c-0.1-0.3-0.1-0.6-0.2-0.8
                    C27.6,78.8,27,78.4,26.2,78.3z M19,77.2c0.4-0.5,0.8-1.1,1.2-1.6c-0.1-0.1-0.1-0.1-0.2-0.2c-0.2,0.1-0.4,0.3-0.6,0.4
                    c-0.2,0.2-0.4,0.5-0.7,0.7c-0.2,0.1-0.4,0.2-0.6,0.3c-0.1-0.2-0.2-0.4-0.2-0.6c0-0.5,0.1-1,0.1-1.5c0-0.4,0.1-0.6,0.5-0.8
                    c0.5-0.2,0.5-0.5,0.2-0.9c-0.2-0.3-0.4-0.7-0.6-1c-0.1-0.2-0.1-0.5-0.3-0.6c-0.3-0.2-0.6-0.4-1-0.6c0,0.3,0.1,0.6,0.1,1
                    c0,0,0,0,0,0.1c0.4,0.9,0.1,1.6-0.7,2c-1.3,0.5-2.5,1.1-3.8,1.6c-0.2,0.1-0.4,0.3-0.4,0.5c0,0.2,0.2,0.4,0.4,0.5
                    c0.2,0.1,0.5,0,0.7-0.1c0.9-0.5,1.7-1,2.6-1.5c0.3-0.1,0.6-0.2,0.8-0.3c0.1,0.3,0.1,0.6,0.2,1c0,0.1,0,0.3-0.1,0.5
                    c-0.5,1.4-1.1,2.7-2.1,3.7c-0.3,0.3-0.5,0.6-0.6,0.9c-0.1,0.1,0,0.4,0.1,0.5c0.1,0.1,0.3,0.2,0.5,0.1c0.3-0.1,0.7-0.3,1-0.5
                    c0.5-0.3,0.6-0.3,0.8,0.3c0.2,0.7,0.4,1.3,0.7,1.9c0.1,0.2,0.4,0.3,0.5,0.3c0.2-0.1,0.4-0.4,0.4-0.6c0-0.4-0.1-0.8-0.2-1.3
                    c-0.1-0.9-0.3-1.9,0.2-2.8C18.2,78,18.6,77.6,19,77.2z M136.3,75.9c-1.2-0.1-2.4-0.2-3.6,0.3c-0.2,0.1-0.4,0.1-0.5,0
                    c-0.1-0.1-0.1-0.4-0.1-0.5c0.1-0.7,0.3-1.3,0.2-2c-0.3-1.3,0.3-2,1.5-2.3c0.3-0.1,0.6-0.3,0.4-0.7c-0.1-0.4-0.4-0.5-0.8-0.4
                    c-0.5,0.1-1.1,0.2-1.6,0.4c-0.8,0.3-1.5,0.4-2.3,0.2c-0.3-0.1-0.6,0-1,0c0.5,0.8,1.2,1,1.8,1.1c0.7,0.1,0.9,0.3,0.9,1
                    c0,0.7,0,1.4-0.1,2c-0.1,1.1-0.9,2-2,2.2c-0.5,0.1-1,0.1-1.5,0.2c-0.6,0.1-1.3,0.3-1.9,0.6c-0.1,0-0.3,0.3-0.3,0.4
                    c0,0.2,0.3,0.4,0.4,0.4c0.3,0,0.7,0,1-0.1c1.7-0.5,3.5-1.1,5.2-1.5c0.9-0.2,1.9-0.3,2.9-0.3c0.4,0,0.8,0.2,1.3,0.2
                    c0.4,0.1,0.7,0,0.7-0.4c0-0.2-0.2-0.5-0.3-0.7C136.7,75.9,136.5,75.9,136.3,75.9z M121.6,72.5c-0.3-0.1-0.6-0.3-0.9-0.3
                    c-1.8-0.5-2-0.7-1.5-2.5c0.2-0.6-0.1-1-0.7-1.1c-0.4-0.1-0.7-0.1-1.3-0.1c0.1,0.3,0.1,0.6,0.2,0.8c0.1,0.2,0.2,0.4,0.2,0.6
                    c0.1,1.1,0.2,2.2,0.2,3.3c0,0.2-0.4,0.6-0.6,0.7c-1,0.4-2,1-3.2,0.7c0,0.7,0.4,1.1,0.9,0.9c0.7-0.2,1.4-0.5,2.1-0.8
                    c0.6-0.3,0.9-0.1,0.9,0.6c0,1.6,0,3.3,0,4.9c0,0.4,0.2,0.8,0.6,0.7c0.2,0,0.3-0.5,0.4-0.7c0,0,0-0.1,0-0.1
                    c-0.1-1.7-0.2-3.4-0.3-5.1c0-1.1,0.3-1.5,1.3-1.7c0.4-0.1,0.9-0.1,1.3-0.1c0.1,0,0.4-0.2,0.4-0.3
                    C121.9,72.8,121.7,72.6,121.6,72.5z M119.4,73c-0.2-0.1-0.4-0.4-0.5-0.7c0-0.1,0.3-0.4,0.3-0.4c0.3,0.2,0.5,0.4,1,0.7
                    C119.8,72.8,119.5,73.1,119.4,73z M98.1,74.5c-0.6,1.4-0.9,3-2.2,4c-0.1,0-0.1,0-0.2,0c0.1-0.7,0.1-1.4,0.2-2
                    c0.1-0.7,0.4-1.3,0.6-2c0.1-0.3-0.1-0.7-0.3-1c-0.1-0.1-0.5,0-0.8,0.1c-0.3,0.1-0.6,0.3-0.9,0.5c-0.4,0.2-0.9,0.4-1.4,0.6
                    c-0.1-0.3-0.1-0.5-0.2-0.7c-0.1,0-0.1,0-0.2-0.1c-0.2,0.3-0.4,0.6-0.5,0.9c-0.2,0.6,0.3,1,0.9,0.8c0.3-0.1,0.6-0.4,1-0.5
                    c0.3-0.2,0.7-0.4,1.1-0.7c0,0.4,0,0.6,0,0.7c-0.1,1-0.3,2-0.4,3c-0.1,0.8-0.2,1.6-0.2,2.3c0,0.3,0.1,0.7,0.4,0.8
                    c0.3,0.2,0.6-0.1,0.8-0.4c0.1-0.2,0.2-0.3,0.3-0.5c0.6-1.3,1.2-2.7,1.7-4c0.2-0.6,0.3-1.2,0.4-1.8C98.3,74.5,98.2,74.5,98.1,74.5
                    z M40.5,74.4c0.1-0.8-0.3-1.2-1.1-1.2c-0.4,0-0.8,0.2-1.2,0.3c-0.8,0.3-1.7,0.5-2.5,0.8c-0.1,0-0.3,0.1-0.4,0.2
                    c0.4,0.5,0.6,0.5,1.3,0.3c0.7-0.2,1.4-0.4,2.1-0.7c0.4-0.1,0.6,0,0.7,0.3c0.1,0.2,0.1,0.5,0.1,0.7c0.1,2,0.1,3.9,0.2,5.9
                    c0,0.2-0.1,0.3-0.2,0.6c-0.5-0.6-0.9-1.1-1.2-1.6c0,0-0.1,0.1-0.1,0.1c0,0.1-0.1,0.2,0,0.3c0.3,1.1,1.1,2,1.9,2.8
                    c0.1,0.1,0.4-0.1,0.5-0.2c0.1-0.4,0.1-0.8,0.1-1.2C40.6,79.4,40.1,76.9,40.5,74.4z M113.1,77.5c-0.1,0-0.1-0.1-0.2-0.1
                    c0.2-0.8,0.3-1.6,0.5-2.4c0.2-1.1-0.4-1.6-1.4-1.2c-0.4,0.1-0.7,0.3-1.1,0.5c-0.3,0.1-0.5,0.2-0.9,0.4c0.3-0.4,0.5-0.7,0.7-1
                    c-0.4,0-0.6-0.1-0.8,0c-0.6,0.3-1,0.8-1.1,1.6c0,0.6,0.2,0.8,0.8,0.6c0.4-0.2,0.8-0.5,1.3-0.7c0.4-0.2,0.8-0.4,1.3-0.7
                    c0,0.1,0.1,0.1,0.1,0.2c-0.2,1.4-0.3,2.8-0.5,4.2c-0.1,0.5,0.2,0.7,0.6,0.7c0.2,0,0.5-0.2,0.6-0.3c0.4-0.7,0.8-1.4,1.1-2.2
                    c0.1-0.2,0-0.5,0-0.9C113.8,76.7,113.5,77.1,113.1,77.5z M36.6,75.8c-0.3,0.1-0.8,0.1-1.3,0.3c-0.2,0.1-0.4,0.4-0.6,0.5
                    c0.2,0.1,0.5,0.2,0.7,0.2c0.4,0,0.8-0.1,1.2-0.1c0.1,0,0.2,0.2,0.3,0.3c-0.1,0.1-0.2,0.2-0.3,0.3c-0.6,0.1-1.1,0.3-1.7,0
                    c-0.1-0.1-0.4-0.2-0.5-0.1c-0.1,0.1-0.2,0.3-0.2,0.5c0.1,0.6,0.2,1.1,0.3,1.7c0.2,0.8,0.4,1,1.3,0.8c0.2,0,0.4,0,0.5,0.1
                    c0.4,0.3,0.7,0.2,0.8-0.2c0.3-1,0.6-1.9,0.8-2.9C38.1,76.2,37.6,75.8,36.6,75.8z M36,79.1c-0.7,0.2-0.6-0.5-0.8-0.8
                    c0.6-0.3,1.3-0.2,1.3,0.1C36.6,78.6,36.3,79,36,79.1z M40,69.6c-0.4,0-0.8,0.2-1.3,0.4c-0.4,0.2-0.8,0.3-1.3,0
                    c-1.1-0.5-1.7-0.3-2.4,0.7c-0.1,0.1-0.2,0.3-0.3,0.4c-0.6,0.9-0.7,1-1.7,0.5c-0.1,0-0.3-0.1-0.4,0c-0.1,0.1-0.1,0.4-0.1,0.4
                    c0.4,0.3,0.8,0.7,1.2,0.9c0.4,0.2,0.8-0.1,1-0.5c0.2-0.4,0.4-0.9,0.6-1.3c0.3-0.6,0.6-0.8,1-0.6c0.7,0.4,1.5,0.8,2.4,0.5
                    c-0.3,0.4-0.7,0.9-1,1.3c0,0.1,0,0.1,0.1,0.2c0.3-0.1,0.6-0.1,0.8-0.2c0.6-0.5,1.2-1.1,1.7-1.6c0.1-0.2,0.3-0.6,0.2-0.7
                    C40.5,69.8,40.2,69.5,40,69.6z M31.9,76.7c-0.2,0-0.4,0.1-0.6,0.2c0.1,0.2,0.1,0.4,0.2,0.5c0.4,0.3,0.5,0.7,0.4,1.2
                    c-0.1,0.5-0.2,1-0.2,1.5c0,0.4-0.1,0.9,0,1.3c0.1,0.3,0.4,0.5,0.6,0.7c0.2-0.2,0.5-0.4,0.5-0.7c0.1-0.7,0.2-1.5,0.3-2.3
                    c-0.1-0.5-0.1-1-0.2-1.5C32.9,77,32.4,76.8,31.9,76.7z M149.8,77.2c0.2,0.8,0.9,1.5-0.2,2.2c0.8,0.4,1.3,0.4,1.7-0.1
                    c0.2-0.2,0.3-0.7,0.2-0.9C151.3,77.7,150.5,77.2,149.8,77.2z M31.9,70.9c0,0-0.3,0.1-0.4,0.2c-0.4,0.6-0.8,1.2-1.1,1.9
                    c-0.1,0.2,0,0.5,0.1,0.7c0.2,0,0.5,0,0.7-0.1c0.7-0.5,0.9-1.3,1.1-2.2C32.2,71.2,32.1,71,31.9,70.9z M112.7,71.4
                    c-0.1,0.1-0.3,0.3-0.4,0.5c0,0.1,0.1,0.1,0.1,0.2c0.3-0.1,0.7-0.1,1-0.2c0.3-0.2,0.6-0.5,0.6-0.8c0-0.3-0.3-0.6-0.6-0.8
                    c-0.4-0.2-1-0.3-1.4-0.4c-0.1,0-0.3,0.1-0.6,0.2c0.5,0.2,0.9,0.3,1.2,0.5C113,70.8,113,71.1,112.7,71.4z M144.6,80.3
                    c-0.6-0.4-1-0.9-1-1.8c-0.3,0.2-0.6,0.3-0.6,0.5c0,0.4-0.1,1,0.1,1.3c0.2,0.5,0.7,0.9,1.3,0.7c0.2,0,0.4-0.2,0.4-0.3
                    C144.9,80.6,144.8,80.3,144.6,80.3z M94.9,71.3c-0.1,0.1-0.1,0.3-0.1,0.4c0,0,0.1,0.1,0.1,0.1c0.6-0.2,1.2-0.5,1.7-0.7
                    c0.2-0.1,0.3-0.4,0.3-0.6c0-0.1-0.2-0.4-0.4-0.4C96,70,95.5,70,95,69.9c0,0-0.1,0.1-0.1,0.1C95.4,70.5,95.5,70.9,94.9,71.3z
                     M147.5,70.5c-0.2-0.3-0.5-0.4-0.9-0.6c-0.4,0.2-0.8,0.4-1.2,0.6c0.4,0.2,0.7,0.5,1.1,0.6C147,71.2,147.7,70.7,147.5,70.5z
                     M32.2,73.8c0.3,0.5,0.6,0.9,1,1.4c0,0,0.1,0.1,0.2,0c0.2,0,0.5-0.1,0.7-0.1c-0.1-0.2-0.1-0.6-0.2-0.7
                    C33.4,73.9,32.8,73.8,32.2,73.8z" />
                </g>
            </g>
        </g>
    </svg>

</svg>

